<svg width="14" height="9" viewBox="0 0 14 9" fill="none" xmlns="http://www.w3.org/2000/svg">
<path d="M6.7641 6.47917L12.0041 1.23922C12.1823 1.06099 12.3902 0.974845 12.6279 0.980786C12.8655 0.986727 13.0734 1.07881 13.2517 1.25704C13.4299 1.43527 13.519 1.64321 13.519 1.88085C13.519 2.11849 13.4299 2.32642 13.2517 2.50465L7.78001 7.99412C7.63743 8.13671 7.47702 8.24365 7.29879 8.31494C7.12056 8.38623 6.94233 8.42187 6.7641 8.42187C6.58588 8.42187 6.40765 8.38623 6.22942 8.31494C6.05119 8.24365 5.89078 8.13671 5.7482 7.99412L0.25872 2.50465C0.0804906 2.32642 -0.0056538 2.11552 0.000287181 1.87193C0.00622816 1.62835 0.0983135 1.41745 0.276543 1.23922C0.454773 1.06099 0.662707 0.971875 0.900347 0.971875C1.13799 0.971875 1.34592 1.06099 1.52415 1.23922L6.7641 6.47917Z" fill="white"/>
</svg>
