<svg width="92" height="92" viewBox="0 0 92 92" fill="none" xmlns="http://www.w3.org/2000/svg">
<rect width="92" height="92" rx="46" fill="#FCEB00"/>
<g clip-path="url(#clip0_115_1047)">
<path d="M59.161 44.3589L52.2227 50.2956L57.3664 50.2213L62.934 45.4228C63.6093 44.8347 63.6839 43.8068 63.0986 43.1273C62.5122 42.4466 61.4804 42.3703 60.7985 42.9576L59.3084 44.2322C59.2717 44.2682 59.2357 44.3049 59.1966 44.3386C59.1861 44.3479 59.1724 44.3507 59.161 44.3589Z" fill="black"/>
<path d="M56.5659 41.2912L49.8555 47.0746C50.2902 47.5641 50.5569 48.2061 50.5569 48.9103C50.5569 49.4303 50.4103 49.9155 50.1597 50.3319L50.9999 50.3198L58.7413 43.6957C59.035 43.417 59.2164 43.0483 59.2465 42.642C59.2786 42.2092 59.1405 41.7901 58.8571 41.4613C58.2718 40.7833 57.2443 40.7071 56.5659 41.2912Z" fill="black"/>
<path d="M67.5948 44.7589C67.2883 44.4032 66.8617 44.1881 66.3937 44.1533C65.9292 44.1189 65.4726 44.2675 65.1164 44.5744L63.4488 46.0117C63.4465 46.014 63.4441 46.0163 63.4418 46.0183C63.441 46.0187 63.4402 46.0191 63.4394 46.0195L57.7714 50.9052C57.7014 50.965 57.6134 50.9983 57.5215 50.9998L49.4454 51.1171C48.9824 51.4647 48.4097 51.6735 47.7872 51.6735H43.2268C43.0106 51.6735 42.8358 51.4987 42.8358 51.2825C42.8358 51.0663 43.0106 50.8915 43.2268 50.8915H47.7872C48.8839 50.8915 49.7757 49.9997 49.7757 48.903C49.7757 47.8063 48.8839 46.9144 47.7872 46.9144H36.6098C36.4385 46.9336 31.4981 47.4931 30.3192 53.0181C30.304 53.0908 30.2653 53.1506 30.2176 53.2007C30.2082 53.2632 30.1886 53.3246 30.1472 53.3786L24.25 61.0845L33.9949 65.5757L38.266 60.0268C38.3446 59.9389 39.7451 58.4723 44.7856 58.6471L47.9745 58.5466C48.046 58.5458 54.4077 58.4312 57.8539 55.4754L57.8542 55.4746L67.4111 47.2382C67.7668 46.9316 67.9819 46.5047 68.0171 46.0371C68.0515 45.5683 67.9013 45.1147 67.5948 44.7589Z" fill="black"/>
<path d="M48.4913 39.9493L56.8982 31.5431C58.9864 29.4541 58.9864 26.0557 56.8982 23.9675C55.8863 22.956 54.541 22.3988 53.11 22.3988C51.679 22.3988 50.3328 22.956 49.3209 23.9678L48.7681 24.5207C48.6152 24.6736 48.3681 24.6736 48.2152 24.5207L47.6616 23.9671C46.6493 22.9556 45.3036 22.3984 43.873 22.3984C42.442 22.3984 41.0966 22.9556 40.0851 23.9671C37.9977 26.0557 37.9977 29.4545 40.0851 31.5431L48.4913 39.9493Z" fill="black"/>
</g>
<defs>
<clipPath id="clip0_115_1047">
<rect width="49.8462" height="54" fill="white" transform="translate(21 19)"/>
</clipPath>
</defs>
</svg>
