<svg width="417" height="151" viewBox="0 0 417 151" fill="none" xmlns="http://www.w3.org/2000/svg">
<rect x="253.766" y="41.4053" width="142" height="45" rx="22.5" transform="rotate(8.35576 253.766 41.4053)" fill="url(#paint0_linear_4327_3929)" fill-opacity="0.14"/>
<rect x="254.188" y="41.9726" width="141" height="44" rx="22" transform="rotate(8.35576 254.188 41.9726)" stroke="#936900" stroke-opacity="0.6"/>
<path opacity="0.6" d="M280.517 73.6346L281.996 63.5609L288.243 64.4784L288.051 65.7868L283.324 65.0925L282.873 68.1619L287.153 68.7904L286.961 70.0939L282.682 69.4654L282.037 73.8579L280.517 73.6346ZM290.502 75.2569C289.757 75.1476 289.139 74.8944 288.648 74.4973C288.161 74.0975 287.814 73.5859 287.608 72.9626C287.405 72.3365 287.361 71.6316 287.476 70.8479C287.59 70.074 287.834 69.4131 288.209 68.8652C288.588 68.3178 289.062 67.9168 289.632 67.6622C290.206 67.4081 290.843 67.3325 291.545 67.4356C291.971 67.4982 292.374 67.6294 292.753 67.8292C293.133 68.0289 293.459 68.303 293.733 68.6514C294.007 68.9998 294.2 69.4286 294.313 69.9376C294.426 70.4433 294.433 71.0389 294.332 71.7242L294.255 72.2456L288.249 71.3635L288.411 70.2617L292.976 70.9321C293.033 70.5452 293.004 70.1909 292.891 69.8694C292.778 69.5446 292.591 69.2743 292.332 69.0586C292.075 68.8434 291.757 68.7079 291.376 68.652C290.963 68.5913 290.587 68.64 290.249 68.798C289.915 68.9533 289.64 69.1809 289.425 69.481C289.214 69.7783 289.081 70.1155 289.026 70.4926L288.899 71.3534C288.825 71.8584 288.85 72.301 288.975 72.6811C289.104 73.0618 289.315 73.3691 289.609 73.6033C289.903 73.8341 290.265 73.9811 290.695 74.0442C290.973 74.0851 291.233 74.0831 291.475 74.0381C291.716 73.9898 291.932 73.8976 292.123 73.7615C292.314 73.6254 292.471 73.4458 292.594 73.2227L293.949 73.678C293.778 74.0715 293.525 74.4012 293.191 74.6671C292.861 74.9302 292.467 75.1152 292.009 75.2221C291.555 75.3262 291.052 75.3379 290.502 75.2569ZM296.879 76.2087C296.4 76.1384 295.98 75.9863 295.619 75.7524C295.259 75.5152 294.991 75.2094 294.814 74.8352C294.641 74.4614 294.591 74.0269 294.664 73.5317C294.727 73.1054 294.86 72.7666 295.065 72.5152C295.269 72.2639 295.522 72.0783 295.825 71.9586C296.127 71.8388 296.456 71.7632 296.813 71.7318C297.169 71.7004 297.529 71.6897 297.893 71.6995C298.353 71.7135 298.727 71.7248 299.013 71.7335C299.301 71.7388 299.514 71.7115 299.654 71.6516C299.793 71.5917 299.876 71.4732 299.902 71.2961L299.907 71.2617C299.97 70.8321 299.898 70.4815 299.69 70.2097C299.485 69.9385 299.145 69.7679 298.669 69.6981C298.174 69.6253 297.768 69.6779 297.45 69.8557C297.136 70.0307 296.906 70.2431 296.759 70.4928L295.423 69.975C295.654 69.5399 295.948 69.2046 296.304 68.9688C296.664 68.7302 297.06 68.5773 297.492 68.5101C297.924 68.4396 298.369 68.4379 298.824 68.5048C299.126 68.5491 299.441 68.6322 299.768 68.7539C300.099 68.8729 300.398 69.0475 300.666 69.2777C300.937 69.5085 301.142 69.8116 301.281 70.1872C301.42 70.5594 301.45 71.021 301.369 71.5719L300.632 76.5891L299.196 76.3781L299.347 75.3452L299.288 75.3365C299.165 75.5127 298.995 75.6787 298.778 75.8344C298.561 75.9901 298.294 76.1067 297.978 76.1842C297.662 76.2617 297.295 76.2699 296.879 76.2087ZM297.372 75.0751C297.779 75.1349 298.138 75.1056 298.45 74.9873C298.766 74.8695 299.018 74.6921 299.207 74.4552C299.399 74.2155 299.518 73.9465 299.561 73.6481L299.704 72.6741C299.644 72.7189 299.535 72.7531 299.378 72.7769C299.224 72.7979 299.05 72.8108 298.855 72.8156C298.66 72.8172 298.471 72.8179 298.286 72.8176C298.103 72.8141 297.949 72.8116 297.825 72.8102C297.535 72.8043 297.265 72.8267 297.016 72.8773C296.771 72.9283 296.566 73.0239 296.401 73.1638C296.241 73.301 296.141 73.5008 296.102 73.7631C296.049 74.1271 296.143 74.4223 296.384 74.6487C296.626 74.8718 296.955 75.014 297.372 75.0751ZM301.898 76.7751L303.008 69.2198L304.429 69.4286L304.253 70.6288L304.332 70.6403C304.529 70.2539 304.819 69.9699 305.201 69.7881C305.586 69.6035 306 69.5437 306.443 69.6088C306.535 69.6223 306.643 69.6414 306.766 69.6663C306.893 69.6916 306.992 69.7145 307.063 69.735L306.856 71.1417C306.8 71.1167 306.697 71.0832 306.549 71.0414C306.402 70.9963 306.253 70.9627 306.102 70.9405C305.754 70.8894 305.433 70.9177 305.14 71.0253C304.85 71.1301 304.607 71.3005 304.411 71.5364C304.216 71.769 304.095 72.0493 304.047 72.3773L303.369 76.9911L301.898 76.7751ZM312.655 78.5108C311.947 78.4068 311.352 78.1536 310.872 77.7515C310.392 77.3493 310.049 76.8349 309.842 76.2083C309.636 75.5818 309.591 74.8783 309.705 74.0978C309.82 73.3141 310.067 72.6501 310.445 72.106C310.823 71.5619 311.3 71.1663 311.876 70.9192C312.451 70.6721 313.093 70.6006 313.801 70.7046C314.51 70.8087 315.104 71.0618 315.584 71.464C316.065 71.8661 316.408 72.3822 316.613 73.012C316.819 73.6419 316.864 74.3486 316.749 75.1324C316.634 75.9128 316.388 76.5735 316.011 77.1143C315.633 77.6551 315.156 78.0491 314.581 78.2962C314.005 78.5433 313.363 78.6148 312.655 78.5108ZM312.841 77.2769C313.3 77.3443 313.698 77.2789 314.036 77.0805C314.373 76.8822 314.644 76.5919 314.847 76.2098C315.054 75.8281 315.193 75.3946 315.264 74.9093C315.335 74.4272 315.326 73.9737 315.238 73.5487C315.153 73.1209 314.978 72.7618 314.713 72.4716C314.447 72.1813 314.085 72.0025 313.626 71.9351C313.163 71.8671 312.762 71.9338 312.421 72.1349C312.083 72.3365 311.81 72.6298 311.603 73.0148C311.399 73.3969 311.262 73.829 311.191 74.3111C311.12 74.7964 311.127 75.2513 311.212 75.6759C311.3 76.1009 311.478 76.4569 311.744 76.7438C312.013 77.0313 312.379 77.209 312.841 77.2769ZM321.854 71.9878L321.68 73.1683L317.411 72.5412L317.584 71.3607L321.854 71.9878ZM317.645 79.088L318.883 70.6571C318.953 70.1849 319.114 69.8082 319.366 69.527C319.619 69.2426 319.927 69.0483 320.291 68.9443C320.655 68.837 321.037 68.8127 321.437 68.8715C321.732 68.9148 321.981 68.9765 322.184 69.0565C322.387 69.1332 322.536 69.1987 322.632 69.253L322.113 70.3928C322.047 70.363 321.962 70.3271 321.858 70.2849C321.754 70.2395 321.625 70.2055 321.471 70.1829C321.113 70.1304 320.844 70.1813 320.664 70.3358C320.487 70.4907 320.374 70.7354 320.325 71.0699L319.116 79.304L317.645 79.088ZM329.247 73.0738L329.074 74.2543L324.804 73.6272L324.978 72.4467L329.247 73.0738ZM325.039 80.1739L326.277 71.7431C326.346 71.2709 326.507 70.8942 326.76 70.613C327.012 70.3285 327.321 70.1343 327.684 70.0303C328.049 69.923 328.431 69.8987 328.831 69.9574C329.126 70.0008 329.375 70.0625 329.577 70.1425C329.781 70.2192 329.93 70.2847 330.026 70.339L329.507 71.4788C329.441 71.449 329.356 71.413 329.251 71.3709C329.147 71.3255 329.018 71.2915 328.864 71.2688C328.507 71.2163 328.238 71.2673 328.058 71.4218C327.881 71.5767 327.768 71.8214 327.719 72.1559L326.51 80.39L325.039 80.1739ZM330.907 81.2067C330.428 81.1363 330.008 80.9842 329.647 80.7503C329.287 80.5131 329.018 80.2074 328.842 79.8331C328.669 79.4593 328.619 79.0249 328.692 78.5297C328.755 78.1034 328.888 77.7646 329.093 77.5132C329.297 77.2618 329.55 77.0763 329.853 76.9565C330.155 76.8368 330.484 76.7612 330.841 76.7298C331.197 76.6984 331.557 76.6876 331.921 76.6975C332.381 76.7115 332.755 76.7228 333.041 76.7314C333.329 76.7368 333.542 76.7095 333.682 76.6496C333.821 76.5897 333.904 76.4712 333.93 76.2941L333.935 76.2597C333.998 75.8301 333.925 75.4794 333.717 75.2077C333.513 74.9364 333.173 74.7659 332.697 74.696C332.202 74.6233 331.796 74.6758 331.478 74.8536C331.164 75.0286 330.934 75.241 330.787 75.4907L329.451 74.9729C329.682 74.5379 329.976 74.2025 330.332 73.9667C330.692 73.7282 331.088 73.5753 331.52 73.5081C331.952 73.4376 332.396 73.4358 332.852 73.5028C333.154 73.5471 333.468 73.6301 333.796 73.7519C334.126 73.8708 334.426 74.0454 334.693 74.2757C334.964 74.5064 335.169 74.8096 335.309 75.1851C335.448 75.5574 335.478 76.0189 335.397 76.5699L334.66 81.587L333.223 81.3761L333.375 80.3431L333.316 80.3345C333.193 80.5107 333.023 80.6767 332.806 80.8324C332.589 80.9881 332.322 81.1047 332.006 81.1822C331.69 81.2597 331.323 81.2678 330.907 81.2067ZM331.4 80.0731C331.806 80.1328 332.166 80.1035 332.478 79.9852C332.793 79.8674 333.046 79.6901 333.235 79.4532C333.427 79.2135 333.545 78.9444 333.589 78.646L333.732 77.6721C333.672 77.7168 333.563 77.7511 333.406 77.7749C333.252 77.7958 333.077 77.8087 332.882 77.8136C332.688 77.8151 332.499 77.8158 332.314 77.8156C332.131 77.812 331.977 77.8095 331.853 77.8081C331.563 77.8023 331.293 77.8247 331.044 77.8752C330.799 77.9263 330.594 78.0218 330.429 78.1618C330.269 78.299 330.169 78.4987 330.13 78.761C330.077 79.125 330.171 79.4202 330.412 79.6467C330.654 79.8698 330.983 80.0119 331.4 80.0731ZM335.926 81.773L337.036 74.2177L338.507 74.4338L337.397 81.9891L335.926 81.773ZM337.95 73.1611C337.694 73.1235 337.487 73.006 337.328 72.8085C337.173 72.6082 337.114 72.3884 337.149 72.149C337.184 71.9063 337.305 71.713 337.51 71.5689C337.719 71.4221 337.952 71.3675 338.208 71.4051C338.463 71.4426 338.669 71.5616 338.824 71.7618C338.982 71.9593 339.044 72.1794 339.008 72.4221C338.973 72.6615 338.851 72.8546 338.642 73.0014C338.436 73.1454 338.206 73.1986 337.95 73.1611ZM341.633 72.3202L340.154 82.394L338.683 82.178L340.162 72.1042L341.633 72.3202ZM346.686 80.1525L347.335 75.7305L348.811 75.9473L347.701 83.5026L346.255 83.2902L346.447 81.9817L346.369 81.9702C346.136 82.348 345.807 82.6432 345.384 82.8557C344.965 83.0655 344.472 83.1287 343.904 83.0454C343.419 82.9741 343.005 82.8044 342.662 82.5363C342.324 82.2655 342.079 81.9029 341.928 81.4486C341.78 80.9947 341.752 80.4563 341.843 79.8332L342.549 75.0276L344.02 75.2436L343.34 79.8722C343.265 80.387 343.347 80.8179 343.588 81.1647C343.828 81.5116 344.176 81.7185 344.632 81.7855C344.907 81.8259 345.191 81.7973 345.484 81.6995C345.779 81.6023 346.038 81.4275 346.259 81.1753C346.484 80.9235 346.626 80.5826 346.686 80.1525ZM348.985 83.6911L350.095 76.1358L351.516 76.3446L351.34 77.5448L351.418 77.5563C351.616 77.1699 351.906 76.8859 352.287 76.7041C352.673 76.5195 353.087 76.4597 353.53 76.5248C353.622 76.5383 353.729 76.5574 353.853 76.5823C353.98 76.6076 354.079 76.6305 354.149 76.651L353.943 78.0577C353.886 78.0327 353.784 77.9992 353.636 77.9574C353.488 77.9123 353.339 77.8786 353.188 77.8565C352.841 77.8054 352.52 77.8337 352.226 77.9413C351.936 78.0461 351.693 78.2164 351.498 78.4524C351.303 78.685 351.181 78.9653 351.133 79.2933L350.456 83.9071L348.985 83.6911ZM356.572 84.9612C355.827 84.8519 355.209 84.5987 354.718 84.2016C354.231 83.8017 353.884 83.2901 353.678 82.6668C353.475 82.0408 353.431 81.3359 353.546 80.5521C353.66 79.7782 353.904 79.1173 354.279 78.5695C354.658 78.0221 355.132 77.6211 355.702 77.3665C356.276 77.1123 356.913 77.0368 357.615 77.1399C358.041 77.2025 358.444 77.3337 358.823 77.5334C359.203 77.7332 359.529 78.0073 359.803 78.3557C360.077 78.7041 360.27 79.1328 360.383 79.6418C360.496 80.1476 360.503 80.7431 360.402 81.4285L360.325 81.9499L354.319 81.0677L354.481 79.9659L359.046 80.6364C359.103 80.2494 359.074 79.8952 358.961 79.5736C358.848 79.2488 358.661 78.9786 358.402 78.7629C358.145 78.5477 357.827 78.4121 357.446 78.3562C357.033 78.2956 356.657 78.3442 356.319 78.5023C355.985 78.6575 355.71 78.8852 355.495 79.1852C355.284 79.4825 355.151 79.8197 355.096 80.1968L354.969 81.0576C354.895 81.5626 354.92 82.0052 355.045 82.3854C355.174 82.766 355.385 83.0734 355.679 83.3075C355.973 83.5383 356.335 83.6853 356.765 83.7484C357.044 83.7893 357.303 83.7873 357.545 83.7423C357.786 83.6941 358.002 83.6019 358.193 83.4658C358.384 83.3296 358.541 83.15 358.664 82.9269L360.019 83.3823C359.848 83.7758 359.595 84.1055 359.261 84.3713C358.931 84.6344 358.537 84.8194 358.079 84.9263C357.625 85.0305 357.122 85.0421 356.572 84.9612Z" fill="white"/>
<rect x="126" y="59" width="126" height="45" rx="22.5" fill="url(#paint1_linear_4327_3929)" fill-opacity="0.14"/>
<rect x="126.5" y="59.5" width="125" height="44" rx="22" stroke="#936900" stroke-opacity="0.6"/>
<path opacity="0.6" d="M163.07 79.4929C163.017 79.0223 162.798 78.6577 162.414 78.3991C162.029 78.1373 161.545 78.0064 160.962 78.0064C160.544 78.0064 160.183 78.0727 159.878 78.2053C159.573 78.3345 159.336 78.5135 159.167 78.7422C159.002 78.9676 158.919 79.2244 158.919 79.5128C158.919 79.7547 158.975 79.9635 159.088 80.1392C159.204 80.3149 159.354 80.4624 159.54 80.5817C159.729 80.6977 159.931 80.7955 160.147 80.875C160.362 80.9512 160.569 81.0142 160.768 81.0639L161.762 81.3224C162.087 81.402 162.42 81.5097 162.762 81.6456C163.103 81.7815 163.42 81.9605 163.711 82.1825C164.003 82.4046 164.238 82.6797 164.417 83.0078C164.6 83.3359 164.691 83.7287 164.691 84.1861C164.691 84.7628 164.542 85.2749 164.243 85.7223C163.948 86.1697 163.519 86.5227 162.956 86.7812C162.395 87.0398 161.718 87.169 160.922 87.169C160.16 87.169 159.5 87.0481 158.944 86.8061C158.387 86.5642 157.951 86.2211 157.636 85.777C157.321 85.3295 157.147 84.7992 157.114 84.1861H158.655C158.685 84.554 158.804 84.8606 159.013 85.1058C159.225 85.3478 159.495 85.5284 159.823 85.6477C160.155 85.7637 160.518 85.8217 160.912 85.8217C161.346 85.8217 161.733 85.7538 162.071 85.6179C162.412 85.4787 162.68 85.2865 162.876 85.0412C163.072 84.7926 163.169 84.5026 163.169 84.1712C163.169 83.8696 163.083 83.6226 162.911 83.4304C162.742 83.2382 162.511 83.0791 162.22 82.9531C161.931 82.8272 161.605 82.7161 161.24 82.62L160.037 82.2919C159.222 82.0698 158.576 81.7434 158.098 81.3125C157.624 80.8816 157.387 80.3116 157.387 79.6023C157.387 79.0156 157.546 78.5036 157.865 78.0661C158.183 77.6286 158.614 77.2888 159.157 77.0469C159.701 76.8016 160.314 76.679 160.997 76.679C161.686 76.679 162.294 76.8 162.821 77.0419C163.352 77.2839 163.769 77.617 164.074 78.0412C164.379 78.4621 164.538 78.946 164.551 79.4929H163.07ZM168.998 87.1541C168.246 87.1541 167.598 86.9934 167.054 86.6719C166.514 86.3471 166.097 85.8913 165.802 85.3047C165.51 84.7147 165.364 84.0237 165.364 83.2315C165.364 82.4493 165.51 81.7599 165.802 81.1634C166.097 80.5668 166.508 80.1011 167.035 79.7663C167.565 79.4316 168.185 79.2642 168.894 79.2642C169.325 79.2642 169.742 79.3355 170.147 79.478C170.551 79.6205 170.914 79.8442 171.236 80.1491C171.557 80.4541 171.811 80.8501 171.996 81.3374C172.182 81.8213 172.275 82.4096 172.275 83.1023V83.6293H166.204V82.5156H170.818C170.818 82.1245 170.738 81.7782 170.579 81.4766C170.42 81.1716 170.196 80.9313 169.908 80.7557C169.623 80.58 169.288 80.4922 168.904 80.4922C168.486 80.4922 168.122 80.5949 167.81 80.8004C167.502 81.0026 167.263 81.2678 167.094 81.5959C166.928 81.9207 166.846 82.2737 166.846 82.6548V83.5249C166.846 84.0353 166.935 84.4695 167.114 84.8274C167.296 85.1854 167.55 85.4588 167.875 85.6477C168.2 85.8333 168.579 85.9261 169.013 85.9261C169.295 85.9261 169.552 85.8864 169.784 85.8068C170.016 85.724 170.216 85.6013 170.385 85.4389C170.554 85.2765 170.684 85.076 170.773 84.8374L172.18 85.0909C172.067 85.5052 171.865 85.8681 171.574 86.1797C171.285 86.4879 170.922 86.7282 170.485 86.9006C170.051 87.0696 169.555 87.1541 168.998 87.1541ZM174.71 76.8182V87H173.224V76.8182H174.71ZM179.644 79.3636V80.5568H175.329V79.3636H179.644ZM176.512 87V78.4787C176.512 78.0014 176.617 77.6053 176.826 77.2905C177.034 76.9723 177.311 76.7353 177.656 76.5795C178.001 76.4205 178.375 76.3409 178.779 76.3409C179.078 76.3409 179.333 76.3658 179.545 76.4155C179.757 76.4619 179.915 76.505 180.017 76.5447L179.669 77.7479C179.6 77.728 179.51 77.7048 179.401 77.6783C179.291 77.6484 179.159 77.6335 179.003 77.6335C178.642 77.6335 178.383 77.723 178.228 77.902C178.075 78.081 177.999 78.3395 177.999 78.6776V87H176.512ZM184.622 82.0533V83.3409H180.108V82.0533H184.622ZM188.762 87.1491C188.145 87.1491 187.595 86.9917 187.111 86.6768C186.631 86.3587 186.253 85.9062 185.978 85.3196C185.706 84.7296 185.57 84.022 185.57 83.1967C185.57 82.3714 185.708 81.6655 185.983 81.0788C186.261 80.4922 186.642 80.0431 187.126 79.7315C187.61 79.42 188.159 79.2642 188.772 79.2642C189.246 79.2642 189.627 79.3438 189.915 79.5028C190.207 79.6586 190.432 79.8409 190.591 80.0497C190.754 80.2585 190.88 80.4425 190.969 80.6016H191.059V76.8182H192.545V87H191.094V85.8118H190.969C190.88 85.9742 190.75 86.1598 190.581 86.3686C190.416 86.5774 190.187 86.7597 189.895 86.9155C189.604 87.0713 189.226 87.1491 188.762 87.1491ZM189.09 85.8814C189.518 85.8814 189.879 85.7687 190.174 85.5433C190.472 85.3146 190.697 84.9981 190.85 84.5938C191.006 84.1894 191.084 83.7187 191.084 83.1818C191.084 82.6515 191.007 82.1875 190.855 81.7898C190.702 81.392 190.479 81.0821 190.184 80.8601C189.889 80.638 189.524 80.527 189.09 80.527C188.643 80.527 188.27 80.643 187.971 80.875C187.673 81.107 187.448 81.4235 187.295 81.8246C187.146 82.2256 187.072 82.678 187.072 83.1818C187.072 83.6922 187.148 84.1513 187.3 84.5589C187.453 84.9666 187.678 85.2898 187.976 85.5284C188.278 85.7637 188.649 85.8814 189.09 85.8814ZM197.183 87.1541C196.468 87.1541 195.843 86.9901 195.309 86.6619C194.776 86.3338 194.361 85.8748 194.066 85.2848C193.771 84.6948 193.624 84.0054 193.624 83.2166C193.624 82.4245 193.771 81.7318 194.066 81.1385C194.361 80.5452 194.776 80.0845 195.309 79.7564C195.843 79.4283 196.468 79.2642 197.183 79.2642C197.899 79.2642 198.524 79.4283 199.058 79.7564C199.591 80.0845 200.006 80.5452 200.301 81.1385C200.596 81.7318 200.743 82.4245 200.743 83.2166C200.743 84.0054 200.596 84.6948 200.301 85.2848C200.006 85.8748 199.591 86.3338 199.058 86.6619C198.524 86.9901 197.899 87.1541 197.183 87.1541ZM197.188 85.9062C197.652 85.9062 198.037 85.7836 198.342 85.5384C198.647 85.2931 198.872 84.9666 199.018 84.5589C199.167 84.1513 199.242 83.7022 199.242 83.2116C199.242 82.7244 199.167 82.277 199.018 81.8693C198.872 81.4583 198.647 81.1286 198.342 80.88C198.037 80.6314 197.652 80.5071 197.188 80.5071C196.721 80.5071 196.333 80.6314 196.025 80.88C195.72 81.1286 195.493 81.4583 195.344 81.8693C195.198 82.277 195.125 82.7244 195.125 83.2116C195.125 83.7022 195.198 84.1513 195.344 84.5589C195.493 84.9666 195.72 85.2931 196.025 85.5384C196.333 85.7836 196.721 85.9062 197.188 85.9062ZM206.54 83.8331V79.3636H208.031V87H206.57V85.6776H206.49C206.314 86.0852 206.033 86.425 205.645 86.6967C205.26 86.9652 204.781 87.0994 204.208 87.0994C203.718 87.0994 203.283 86.9917 202.906 86.7763C202.531 86.5575 202.236 86.2344 202.021 85.8068C201.808 85.3793 201.702 84.8506 201.702 84.2209V79.3636H203.189V84.0419C203.189 84.5623 203.333 84.9766 203.621 85.2848C203.91 85.593 204.284 85.7472 204.745 85.7472C205.023 85.7472 205.3 85.6776 205.575 85.5384C205.854 85.3991 206.084 85.1887 206.266 84.907C206.452 84.6252 206.543 84.2673 206.54 83.8331ZM209.448 87V76.8182H210.934V80.6016H211.024C211.11 80.4425 211.234 80.2585 211.397 80.0497C211.559 79.8409 211.785 79.6586 212.073 79.5028C212.361 79.3438 212.742 79.2642 213.216 79.2642C213.833 79.2642 214.383 79.42 214.867 79.7315C215.351 80.0431 215.73 80.4922 216.005 81.0788C216.284 81.6655 216.423 82.3714 216.423 83.1967C216.423 84.022 216.286 84.7296 216.01 85.3196C215.735 85.9062 215.357 86.3587 214.877 86.6768C214.396 86.9917 213.848 87.1491 213.231 87.1491C212.767 87.1491 212.388 87.0713 212.093 86.9155C211.801 86.7597 211.572 86.5774 211.407 86.3686C211.241 86.1598 211.113 85.9742 211.024 85.8118H210.9V87H209.448ZM210.905 83.1818C210.905 83.7187 210.982 84.1894 211.138 84.5938C211.294 84.9981 211.519 85.3146 211.814 85.5433C212.109 85.7687 212.471 85.8814 212.898 85.8814C213.342 85.8814 213.714 85.7637 214.012 85.5284C214.31 85.2898 214.536 84.9666 214.688 84.5589C214.844 84.1513 214.922 83.6922 214.922 83.1818C214.922 82.678 214.845 82.2256 214.693 81.8246C214.544 81.4235 214.318 81.107 214.017 80.875C213.719 80.643 213.346 80.527 212.898 80.527C212.467 80.527 212.103 80.638 211.804 80.8601C211.509 81.0821 211.286 81.392 211.133 81.7898C210.981 82.1875 210.905 82.6515 210.905 83.1818ZM220.957 79.3636V80.5568H216.786V79.3636H220.957ZM217.904 77.5341H219.391V84.7578C219.391 85.0462 219.434 85.2633 219.52 85.4091C219.606 85.5516 219.717 85.6494 219.853 85.7024C219.992 85.7521 220.143 85.777 220.306 85.777C220.425 85.777 220.529 85.7687 220.619 85.7521C220.708 85.7356 220.778 85.7223 220.828 85.7124L221.096 86.9403C221.01 86.9735 220.887 87.0066 220.728 87.0398C220.569 87.0762 220.37 87.0961 220.132 87.0994C219.741 87.1061 219.376 87.0365 219.038 86.8906C218.7 86.7448 218.426 86.5194 218.218 86.2145C218.009 85.9096 217.904 85.5268 217.904 85.0661V77.5341Z" fill="white"/>
<rect x="359" y="2" width="58" height="58" rx="29" fill="black"/>
<rect x="359" y="2" width="58" height="58" rx="29" fill="url(#paint2_linear_4327_3929)"/>
<rect x="359" y="2" width="58" height="58" rx="29" fill="#FCEB00"/>
<path d="M388.001 18.25L372.418 26.75L388.001 35.25L400.751 28.2942V38.0833H403.585V26.75M378.085 32.6717V38.3383L388.001 43.75L397.918 38.3383V32.6717L388.001 38.0833L378.085 32.6717Z" fill="black"/>
<rect x="2" y="88" width="63" height="63" rx="31.5" fill="#FCEB00"/>
<g clip-path="url(#clip0_4327_3929)">
<path d="M25.453 123.328C25.0325 123.216 24.674 122.94 24.4563 122.563C24.2387 122.186 24.1797 121.738 24.2923 121.318L26.9963 111.226C27.1091 110.806 27.3842 110.447 27.7612 110.23C28.1382 110.012 28.5862 109.953 29.0067 110.065L39.0985 112.77C39.5123 112.888 39.8629 113.165 40.0749 113.539C40.2869 113.914 40.3433 114.357 40.2318 114.773C40.1204 115.188 39.8502 115.544 39.4793 115.762C39.1083 115.981 38.6665 116.045 38.2488 115.941L32.0558 114.385L39.8539 127.891C40.0716 128.268 40.1306 128.716 40.0179 129.137C39.9052 129.558 39.63 129.916 39.253 130.134C38.8759 130.352 38.4278 130.411 38.0072 130.298C37.5866 130.185 37.2281 129.91 37.0104 129.533L29.2122 116.026L27.4633 122.168C27.3506 122.588 27.0755 122.947 26.6985 123.164C26.3215 123.382 25.8735 123.441 25.453 123.328Z" fill="black"/>
</g>
<rect x="50" y="16" width="32" height="32" rx="16" fill="black"/>
<rect x="50" y="16" width="32" height="32" rx="16" fill="url(#paint3_linear_4327_3929)"/>
<rect x="50" y="16" width="32" height="32" rx="16" fill="#FCEB00"/>
<path d="M64.3346 23.667H67.668C68.11 23.667 68.5339 23.8426 68.8465 24.1551C69.159 24.4677 69.3346 24.8916 69.3346 25.3337V27.0003H72.668C73.11 27.0003 73.5339 27.1759 73.8465 27.4885C74.159 27.801 74.3346 28.225 74.3346 28.667V37.8337C74.3346 38.2757 74.159 38.6996 73.8465 39.0122C73.5339 39.3247 73.11 39.5003 72.668 39.5003H59.3346C58.8926 39.5003 58.4687 39.3247 58.1561 39.0122C57.8436 38.6996 57.668 38.2757 57.668 37.8337V28.667C57.668 27.742 58.4096 27.0003 59.3346 27.0003H62.668V25.3337C62.668 24.4087 63.4096 23.667 64.3346 23.667ZM67.668 27.0003V25.3337H64.3346V27.0003H67.668Z" fill="black"/>
<rect x="265" y="105" width="145" height="45" rx="22.5" fill="url(#paint4_linear_4327_3929)" fill-opacity="0.14"/>
<rect x="265.5" y="105.5" width="144" height="44" rx="22" stroke="#936900" stroke-opacity="0.6"/>
<path opacity="0.6" d="M296.327 133V122.818H299.957C300.749 122.818 301.405 122.962 301.925 123.251C302.446 123.539 302.835 123.933 303.094 124.434C303.352 124.931 303.482 125.491 303.482 126.114C303.482 126.741 303.351 127.304 303.089 127.805C302.83 128.302 302.439 128.696 301.915 128.988C301.395 129.276 300.741 129.42 299.952 129.42H297.456V128.118H299.812C300.313 128.118 300.719 128.032 301.031 127.859C301.342 127.684 301.571 127.445 301.717 127.143C301.862 126.842 301.935 126.499 301.935 126.114C301.935 125.73 301.862 125.388 301.717 125.09C301.571 124.792 301.34 124.558 301.026 124.389C300.714 124.22 300.303 124.136 299.793 124.136H297.864V133H296.327ZM307.659 133.154C306.906 133.154 306.258 132.993 305.715 132.672C305.175 132.347 304.757 131.891 304.462 131.305C304.17 130.715 304.024 130.024 304.024 129.232C304.024 128.449 304.17 127.76 304.462 127.163C304.757 126.567 305.168 126.101 305.695 125.766C306.225 125.432 306.845 125.264 307.554 125.264C307.985 125.264 308.403 125.335 308.807 125.478C309.211 125.621 309.574 125.844 309.896 126.149C310.217 126.454 310.471 126.85 310.657 127.337C310.842 127.821 310.935 128.41 310.935 129.102V129.629H304.865V128.516H309.478C309.478 128.125 309.399 127.778 309.24 127.477C309.081 127.172 308.857 126.931 308.568 126.756C308.283 126.58 307.949 126.492 307.564 126.492C307.147 126.492 306.782 126.595 306.47 126.8C306.162 127.003 305.924 127.268 305.755 127.596C305.589 127.921 305.506 128.274 305.506 128.655V129.525C305.506 130.035 305.595 130.469 305.774 130.827C305.957 131.185 306.21 131.459 306.535 131.648C306.86 131.833 307.239 131.926 307.674 131.926C307.955 131.926 308.212 131.886 308.444 131.807C308.676 131.724 308.877 131.601 309.046 131.439C309.215 131.277 309.344 131.076 309.434 130.837L310.84 131.091C310.728 131.505 310.526 131.868 310.234 132.18C309.946 132.488 309.583 132.728 309.145 132.901C308.711 133.07 308.215 133.154 307.659 133.154ZM315.175 133.154C314.423 133.154 313.775 132.993 313.232 132.672C312.691 132.347 312.274 131.891 311.979 131.305C311.687 130.715 311.541 130.024 311.541 129.232C311.541 128.449 311.687 127.76 311.979 127.163C312.274 126.567 312.685 126.101 313.212 125.766C313.742 125.432 314.362 125.264 315.071 125.264C315.502 125.264 315.92 125.335 316.324 125.478C316.728 125.621 317.091 125.844 317.413 126.149C317.734 126.454 317.988 126.85 318.173 127.337C318.359 127.821 318.452 128.41 318.452 129.102V129.629H312.381V128.516H316.995C316.995 128.125 316.916 127.778 316.756 127.477C316.597 127.172 316.374 126.931 316.085 126.756C315.8 126.58 315.465 126.492 315.081 126.492C314.663 126.492 314.299 126.595 313.987 126.8C313.679 127.003 313.44 127.268 313.271 127.596C313.106 127.921 313.023 128.274 313.023 128.655V129.525C313.023 130.035 313.112 130.469 313.291 130.827C313.474 131.185 313.727 131.459 314.052 131.648C314.377 131.833 314.756 131.926 315.19 131.926C315.472 131.926 315.729 131.886 315.961 131.807C316.193 131.724 316.393 131.601 316.563 131.439C316.732 131.277 316.861 131.076 316.95 130.837L318.357 131.091C318.245 131.505 318.042 131.868 317.751 132.18C317.462 132.488 317.099 132.728 316.662 132.901C316.228 133.07 315.732 133.154 315.175 133.154ZM319.401 133V125.364H320.838V126.577H320.917C321.057 126.166 321.302 125.843 321.653 125.607C322.008 125.369 322.409 125.249 322.856 125.249C322.949 125.249 323.058 125.253 323.184 125.259C323.314 125.266 323.415 125.274 323.488 125.284V126.706C323.428 126.689 323.322 126.671 323.17 126.651C323.017 126.628 322.865 126.616 322.712 126.616C322.361 126.616 322.048 126.691 321.772 126.84C321.501 126.986 321.285 127.19 321.126 127.452C320.967 127.71 320.888 128.005 320.888 128.337V133H319.401ZM327.079 135.864V125.364H328.531V126.602H328.655C328.741 126.442 328.866 126.259 329.028 126.05C329.19 125.841 329.416 125.659 329.704 125.503C329.993 125.344 330.374 125.264 330.848 125.264C331.464 125.264 332.014 125.42 332.498 125.732C332.982 126.043 333.362 126.492 333.637 127.079C333.915 127.665 334.054 128.371 334.054 129.197C334.054 130.022 333.917 130.73 333.642 131.32C333.367 131.906 332.989 132.359 332.508 132.677C332.028 132.992 331.479 133.149 330.863 133.149C330.399 133.149 330.019 133.071 329.724 132.915C329.432 132.76 329.204 132.577 329.038 132.369C328.872 132.16 328.745 131.974 328.655 131.812H328.566V135.864H327.079ZM328.536 129.182C328.536 129.719 328.614 130.189 328.77 130.594C328.925 130.998 329.151 131.315 329.446 131.543C329.741 131.769 330.102 131.881 330.529 131.881C330.974 131.881 331.345 131.764 331.643 131.528C331.941 131.29 332.167 130.967 332.319 130.559C332.475 130.151 332.553 129.692 332.553 129.182C332.553 128.678 332.477 128.226 332.324 127.825C332.175 127.424 331.95 127.107 331.648 126.875C331.35 126.643 330.977 126.527 330.529 126.527C330.099 126.527 329.734 126.638 329.436 126.86C329.141 127.082 328.917 127.392 328.765 127.79C328.612 128.187 328.536 128.652 328.536 129.182ZM335.02 133V125.364H336.457V126.577H336.536C336.675 126.166 336.921 125.843 337.272 125.607C337.627 125.369 338.028 125.249 338.475 125.249C338.568 125.249 338.677 125.253 338.803 125.259C338.932 125.266 339.034 125.274 339.106 125.284V126.706C339.047 126.689 338.941 126.671 338.788 126.651C338.636 126.628 338.483 126.616 338.331 126.616C337.98 126.616 337.666 126.691 337.391 126.84C337.119 126.986 336.904 127.19 336.745 127.452C336.586 127.71 336.506 128.005 336.506 128.337V133H335.02ZM342.711 133.154C341.958 133.154 341.31 132.993 340.767 132.672C340.226 132.347 339.809 131.891 339.514 131.305C339.222 130.715 339.076 130.024 339.076 129.232C339.076 128.449 339.222 127.76 339.514 127.163C339.809 126.567 340.22 126.101 340.747 125.766C341.277 125.432 341.897 125.264 342.606 125.264C343.037 125.264 343.455 125.335 343.859 125.478C344.263 125.621 344.626 125.844 344.948 126.149C345.269 126.454 345.523 126.85 345.708 127.337C345.894 127.821 345.987 128.41 345.987 129.102V129.629H339.917V128.516H344.53C344.53 128.125 344.451 127.778 344.292 127.477C344.132 127.172 343.909 126.931 343.62 126.756C343.335 126.58 343.001 126.492 342.616 126.492C342.199 126.492 341.834 126.595 341.522 126.8C341.214 127.003 340.976 127.268 340.806 127.596C340.641 127.921 340.558 128.274 340.558 128.655V129.525C340.558 130.035 340.647 130.469 340.826 130.827C341.009 131.185 341.262 131.459 341.587 131.648C341.912 131.833 342.291 131.926 342.726 131.926C343.007 131.926 343.264 131.886 343.496 131.807C343.728 131.724 343.929 131.601 344.098 131.439C344.267 131.277 344.396 131.076 344.485 130.837L345.892 131.091C345.78 131.505 345.578 131.868 345.286 132.18C344.998 132.488 344.635 132.728 344.197 132.901C343.763 133.07 343.267 133.154 342.711 133.154ZM352.659 127.228L351.311 127.467C351.255 127.294 351.165 127.13 351.043 126.974C350.923 126.819 350.761 126.691 350.556 126.592C350.35 126.492 350.093 126.442 349.785 126.442C349.364 126.442 349.013 126.537 348.731 126.726C348.449 126.911 348.308 127.152 348.308 127.447C348.308 127.702 348.403 127.907 348.592 128.063C348.781 128.219 349.086 128.347 349.507 128.446L350.72 128.724C351.422 128.887 351.946 129.137 352.291 129.475C352.635 129.813 352.808 130.252 352.808 130.793C352.808 131.25 352.675 131.658 352.41 132.016C352.148 132.37 351.782 132.649 351.311 132.851C350.844 133.053 350.302 133.154 349.685 133.154C348.83 133.154 348.133 132.972 347.592 132.607C347.052 132.239 346.721 131.717 346.598 131.041L348.035 130.822C348.124 131.197 348.308 131.48 348.587 131.673C348.865 131.862 349.228 131.956 349.676 131.956C350.163 131.956 350.552 131.855 350.844 131.653C351.136 131.447 351.281 131.197 351.281 130.902C351.281 130.663 351.192 130.463 351.013 130.3C350.837 130.138 350.567 130.015 350.203 129.933L348.91 129.649C348.197 129.487 347.67 129.228 347.329 128.874C346.991 128.519 346.822 128.07 346.822 127.526C346.822 127.076 346.948 126.681 347.2 126.343C347.452 126.005 347.8 125.741 348.244 125.553C348.688 125.36 349.197 125.264 349.77 125.264C350.595 125.264 351.245 125.443 351.719 125.801C352.193 126.156 352.506 126.631 352.659 127.228ZM359.464 127.228L358.117 127.467C358.061 127.294 357.971 127.13 357.849 126.974C357.729 126.819 357.567 126.691 357.361 126.592C357.156 126.492 356.899 126.442 356.591 126.442C356.17 126.442 355.819 126.537 355.537 126.726C355.255 126.911 355.114 127.152 355.114 127.447C355.114 127.702 355.209 127.907 355.398 128.063C355.587 128.219 355.891 128.347 356.312 128.446L357.525 128.724C358.228 128.887 358.752 129.137 359.096 129.475C359.441 129.813 359.614 130.252 359.614 130.793C359.614 131.25 359.481 131.658 359.216 132.016C358.954 132.37 358.588 132.649 358.117 132.851C357.65 133.053 357.108 133.154 356.491 133.154C355.636 133.154 354.939 132.972 354.398 132.607C353.858 132.239 353.527 131.717 353.404 131.041L354.841 130.822C354.93 131.197 355.114 131.48 355.393 131.673C355.671 131.862 356.034 131.956 356.481 131.956C356.969 131.956 357.358 131.855 357.65 131.653C357.941 131.447 358.087 131.197 358.087 130.902C358.087 130.663 357.998 130.463 357.819 130.3C357.643 130.138 357.373 130.015 357.008 129.933L355.716 129.649C355.003 129.487 354.476 129.228 354.135 128.874C353.797 128.519 353.628 128.07 353.628 127.526C353.628 127.076 353.754 126.681 354.006 126.343C354.257 126.005 354.605 125.741 355.05 125.553C355.494 125.36 356.002 125.264 356.576 125.264C357.401 125.264 358.051 125.443 358.525 125.801C358.999 126.156 359.312 126.631 359.464 127.228ZM365.385 129.833V125.364H366.877V133H365.415V131.678H365.336C365.16 132.085 364.878 132.425 364.49 132.697C364.106 132.965 363.627 133.099 363.054 133.099C362.563 133.099 362.129 132.992 361.751 132.776C361.377 132.558 361.082 132.234 360.866 131.807C360.654 131.379 360.548 130.851 360.548 130.221V125.364H362.034V130.042C362.034 130.562 362.179 130.977 362.467 131.285C362.755 131.593 363.13 131.747 363.591 131.747C363.869 131.747 364.146 131.678 364.421 131.538C364.699 131.399 364.93 131.189 365.112 130.907C365.297 130.625 365.389 130.267 365.385 129.833ZM368.174 133V125.364H369.611V126.577H369.69C369.83 126.166 370.075 125.843 370.426 125.607C370.781 125.369 371.182 125.249 371.629 125.249C371.722 125.249 371.832 125.253 371.957 125.259C372.087 125.266 372.188 125.274 372.261 125.284V126.706C372.201 126.689 372.095 126.671 371.943 126.651C371.79 126.628 371.638 126.616 371.485 126.616C371.134 126.616 370.821 126.691 370.546 126.84C370.274 126.986 370.058 127.19 369.899 127.452C369.74 127.71 369.661 128.005 369.661 128.337V133H368.174ZM375.865 133.154C375.113 133.154 374.465 132.993 373.921 132.672C373.381 132.347 372.963 131.891 372.668 131.305C372.377 130.715 372.231 130.024 372.231 129.232C372.231 128.449 372.377 127.76 372.668 127.163C372.963 126.567 373.374 126.101 373.901 125.766C374.431 125.432 375.051 125.264 375.76 125.264C376.191 125.264 376.609 125.335 377.013 125.478C377.418 125.621 377.781 125.844 378.102 126.149C378.424 126.454 378.677 126.85 378.863 127.337C379.048 127.821 379.141 128.41 379.141 129.102V129.629H373.071V128.516H377.685C377.685 128.125 377.605 127.778 377.446 127.477C377.287 127.172 377.063 126.931 376.775 126.756C376.49 126.58 376.155 126.492 375.77 126.492C375.353 126.492 374.988 126.595 374.677 126.8C374.368 127.003 374.13 127.268 373.961 127.596C373.795 127.921 373.712 128.274 373.712 128.655V129.525C373.712 130.035 373.802 130.469 373.981 130.827C374.163 131.185 374.417 131.459 374.741 131.648C375.066 131.833 375.446 131.926 375.88 131.926C376.162 131.926 376.418 131.886 376.65 131.807C376.882 131.724 377.083 131.601 377.252 131.439C377.421 131.277 377.55 131.076 377.64 130.837L379.047 131.091C378.934 131.505 378.732 131.868 378.44 132.18C378.152 132.488 377.789 132.728 377.351 132.901C376.917 133.07 376.422 133.154 375.865 133.154Z" fill="white"/>
<rect x="16.9922" y="30" width="125" height="45" rx="22.5" transform="rotate(22.1876 16.9922 30)" fill="url(#paint5_linear_4327_3929)" fill-opacity="0.14"/>
<rect x="17.2663" y="30.6518" width="124" height="44" rx="22" transform="rotate(22.1876 17.2663 30.6518)" stroke="#936900" stroke-opacity="0.6"/>
<path opacity="0.6" d="M42.8001 59.7688L44.218 60.347L41.4919 67.0313C41.2453 67.6358 40.9147 68.1042 40.5001 68.4362C40.0886 68.7695 39.6217 68.962 39.0994 69.0139C38.5784 69.0627 38.0294 68.9695 37.4524 68.7342C36.9215 68.5176 36.4837 68.2263 36.139 67.8602C35.7974 67.4954 35.5789 67.0788 35.4836 66.6104C35.3926 66.1402 35.4554 65.6396 35.6719 65.1087L37.0852 65.685C36.9788 65.9459 36.9467 66.1959 36.9887 66.435C37.0339 66.6753 37.1405 66.8924 37.3084 67.0862C37.4807 67.2781 37.7049 67.4304 37.9811 67.5431C38.2819 67.6657 38.5623 67.7067 38.8223 67.666C39.0866 67.6234 39.3247 67.5004 39.5366 67.2969C39.7484 67.0934 39.9276 66.8121 40.074 66.453L42.8001 59.7688ZM44.6049 71.6673C43.942 71.397 43.4255 71.0091 43.0553 70.5038C42.6851 69.9984 42.4748 69.4169 42.4245 68.7593C42.3741 68.1016 42.4979 67.4075 42.7958 66.6771C43.0949 65.9436 43.4931 65.3579 43.9903 64.92C44.4875 64.482 45.0451 64.2119 45.6631 64.1096C46.2811 64.0073 46.9216 64.0913 47.5845 64.3617C48.2474 64.632 48.7639 65.0199 49.1341 65.5252C49.5043 66.0305 49.7139 66.6136 49.763 67.2743C49.8121 67.9351 49.6871 68.6322 49.3879 69.3657C49.09 70.0961 48.6931 70.6787 48.1972 71.1136C47.7013 71.5485 47.1443 71.8171 46.5263 71.9194C45.9083 72.0217 45.2678 71.9377 44.6049 71.6673ZM45.0808 70.5137C45.5104 70.689 45.9127 70.7206 46.2877 70.6087C46.6627 70.4967 46.9946 70.2795 47.2836 69.9571C47.5757 69.636 47.8143 69.2483 47.9996 68.7941C48.1836 68.3429 48.2835 67.9005 48.2993 67.4666C48.3195 67.031 48.2354 66.6406 48.0469 66.2952C47.8584 65.9499 47.5493 65.6896 47.1197 65.5144C46.687 65.3379 46.281 65.3066 45.9017 65.4203C45.5255 65.5353 45.1907 65.755 44.8974 66.0792C44.6084 66.4016 44.3719 66.7884 44.1879 67.2395C44.0027 67.6937 43.9006 68.1371 43.8817 68.5697C43.8658 69.0035 43.9528 69.3915 44.1425 69.7338C44.3353 70.0773 44.648 70.3373 45.0808 70.5137ZM48.9579 73.2762L52.803 63.8483L54.1794 64.4097L52.7506 67.9129L52.8335 67.9467C52.9734 67.832 53.1579 67.7086 53.3872 67.5766C53.6164 67.4445 53.8939 67.3609 54.2198 67.3255C54.5468 67.2871 54.9298 67.3574 55.3687 67.5364C55.9395 67.7692 56.3901 68.1212 56.7205 68.5924C57.051 69.0636 57.2328 69.6228 57.2659 70.2699C57.3022 70.9182 57.1645 71.6245 56.8528 72.3887C56.5412 73.1528 56.1466 73.7561 55.6691 74.1985C55.1928 74.6378 54.6721 74.9141 54.1069 75.0272C53.543 75.1373 52.9756 75.0759 52.4048 74.8431C51.9752 74.6678 51.6532 74.4524 51.4389 74.1968C51.2276 73.9424 51.0847 73.6872 51.0101 73.4313C50.9355 73.1754 50.8874 72.9553 50.8659 72.7712L50.7508 72.7242L50.3021 73.8244L48.9579 73.2762ZM51.7486 70.2909C51.5458 70.788 51.4402 71.2532 51.4318 71.6865C51.4233 72.1197 51.5125 72.4979 51.6992 72.8211C51.8873 73.1412 52.1792 73.3819 52.5751 73.5434C52.9864 73.7111 53.3745 73.7424 53.7396 73.6371C54.1059 73.5288 54.4367 73.3147 54.7318 72.9948C55.03 72.6761 55.2755 72.2805 55.4682 71.8079C55.6585 71.3414 55.7587 70.8937 55.769 70.4648C55.7823 70.0371 55.6932 69.6589 55.5015 69.3302C55.3129 69.0027 55.0115 68.7545 54.5972 68.5855C54.1982 68.4228 53.8187 68.3879 53.4586 68.4809C53.1016 68.5751 52.7774 68.7776 52.4861 69.0883C52.1947 69.399 51.9489 69.7998 51.7486 70.2909ZM67.1841 72.6021C67.3127 72.1463 67.2478 71.7261 66.9895 71.3416C66.7324 70.9539 66.3337 70.6499 65.7936 70.4297C65.4069 70.272 65.0473 70.1969 64.7149 70.2045C64.3838 70.209 64.0968 70.2853 63.8539 70.4332C63.6153 70.5793 63.4416 70.7859 63.3327 71.0529C63.2413 71.2769 63.2146 71.4915 63.2526 71.6967C63.2937 71.9032 63.3777 72.0967 63.5045 72.2773C63.6356 72.456 63.7859 72.6229 63.9553 72.7779C64.126 72.9299 64.294 73.0664 64.4594 73.1876L65.2825 73.8024C65.5532 73.9988 65.8209 74.2243 66.0857 74.479C66.3505 74.7338 66.576 75.019 66.7622 75.3348C66.9484 75.6506 67.0624 75.9942 67.1042 76.3656C67.1491 76.7382 67.0852 77.1363 66.9125 77.5599C66.6947 78.0939 66.3632 78.5117 65.918 78.8134C65.4759 79.1163 64.9452 79.281 64.3258 79.3076C63.7095 79.3355 63.0331 79.1992 62.2966 78.8988C61.5907 78.6109 61.0257 78.2498 60.6015 77.8155C60.1772 77.3812 59.9032 76.899 59.7794 76.3688C59.6568 75.8356 59.6959 75.2789 59.8968 74.6986L61.3239 75.2806C61.2126 75.6325 61.2073 75.9615 61.308 76.2674C61.413 76.5716 61.5949 76.8408 61.8537 77.0752C62.1168 77.3078 62.431 77.4986 62.7962 77.6475C63.1982 77.8115 63.5814 77.8944 63.9457 77.8962C64.3144 77.8963 64.6356 77.8196 64.9093 77.6664C65.1842 77.5101 65.3843 77.2784 65.5095 76.9715C65.6234 76.6923 65.6368 76.4311 65.5498 76.188C65.4659 75.9462 65.3127 75.7119 65.0902 75.4851C64.8707 75.2596 64.6104 75.0335 64.3091 74.8068L63.319 74.0486C62.6479 73.5351 62.1727 72.9887 61.8935 72.4095C61.6173 71.8316 61.6132 71.2142 61.881 70.5575C62.1026 70.0143 62.4433 69.6002 62.9031 69.3152C63.3629 69.0303 63.8902 68.8784 64.4849 68.8597C65.0808 68.8378 65.6949 68.9558 66.3271 69.2137C66.9654 69.474 67.4829 69.8157 67.8795 70.2388C68.2792 70.6631 68.5401 71.1292 68.6622 71.6372C68.7856 72.1421 68.7502 72.6502 68.5559 73.1616L67.1841 72.6021ZM72.9755 74.8245L72.5249 75.9293L68.6626 74.3541L69.1132 73.2493L72.9755 74.8245ZM70.8399 71.9777L72.2163 72.539L69.4883 79.2279C69.3794 79.4949 69.3374 79.7121 69.3621 79.8797C69.388 80.0442 69.4539 80.1767 69.5597 80.2771C69.6699 80.3757 69.8001 80.4557 69.9505 80.517C70.061 80.5621 70.1608 80.5938 70.2499 80.6123C70.339 80.6307 70.4085 80.6447 70.4583 80.6543L70.2431 81.8927C70.1508 81.8909 70.0247 81.8753 69.8649 81.8459C69.7038 81.8196 69.5122 81.7629 69.29 81.6758C68.9253 81.5343 68.614 81.3321 68.3561 81.0694C68.0981 80.8067 67.93 80.4948 67.8518 80.1336C67.7736 79.7724 67.8215 79.3785 67.9955 78.9519L70.8399 71.9777ZM70.9661 82.252L73.8499 75.1811L75.1803 75.7237L74.7222 76.847L74.7959 76.877C75.08 76.549 75.4291 76.3424 75.8433 76.2572C76.2618 76.1702 76.6782 76.2111 77.0925 76.3801C77.1784 76.4151 77.2784 76.4595 77.3926 76.5132C77.5097 76.5682 77.6002 76.614 77.664 76.6508L77.127 77.9673C77.078 77.9295 76.9867 77.8725 76.8531 77.7965C76.7206 77.7175 76.5839 77.6492 76.4427 77.5916C76.1174 77.4589 75.7992 77.4097 75.4881 77.4439C75.1814 77.4763 74.905 77.5837 74.6588 77.7661C74.4138 77.9454 74.2288 78.1885 74.1036 78.4954L72.3425 82.8134L70.9661 82.252ZM78.0292 85.2991C77.3326 85.015 76.7933 84.6214 76.4114 84.1185C76.0338 83.6137 75.8192 83.034 75.7676 82.3794C75.7203 81.723 75.8463 81.028 76.1454 80.2945C76.4408 79.5703 76.8362 78.987 77.3316 78.5447C77.83 78.1037 78.3864 77.8277 79.0008 77.7168C79.6182 77.6071 80.2553 77.6861 80.9121 77.954C81.3111 78.1167 81.6708 78.3404 81.9914 78.6251C82.312 78.9097 82.5636 79.2539 82.7461 79.6577C82.9287 80.0614 83.0139 80.5239 83.0017 81.0452C82.9909 81.5633 82.8546 82.1431 82.593 82.7845L82.394 83.2725L76.7732 80.9801L77.1938 79.9489L81.4658 81.6912C81.6135 81.3291 81.6706 80.9783 81.6372 80.639C81.605 80.2966 81.4886 79.9896 81.288 79.718C81.0904 79.4477 80.8136 79.24 80.4576 79.0948C80.0709 78.9371 79.6945 78.8945 79.3284 78.9672C78.9666 79.038 78.6455 79.1934 78.3651 79.4334C78.089 79.6715 77.879 79.9671 77.735 80.32L77.4065 81.1256C77.2137 81.5983 77.1326 82.0341 77.1632 82.4331C77.1968 82.8334 77.3283 83.1824 77.5577 83.4799C77.7884 83.7745 78.1047 84.0037 78.5068 84.1677C78.7676 84.2741 79.0205 84.3342 79.2654 84.3482C79.5115 84.3591 79.7435 84.3213 79.9613 84.2347C80.1792 84.1482 80.3746 84.0113 80.5476 83.8241L81.7546 84.5902C81.4938 84.9313 81.1695 85.191 80.7818 85.3694C80.3984 85.5459 79.9716 85.6313 79.5014 85.6257C79.0355 85.6182 78.5448 85.5094 78.0292 85.2991ZM89.4785 83.5685L88.1408 83.2807C88.1537 83.0998 88.1328 82.9141 88.0781 82.7236C88.0264 82.5343 87.9242 82.3548 87.7715 82.1851C87.6188 82.0154 87.3997 81.8724 87.1143 81.756C86.7245 81.597 86.3636 81.5518 86.0314 81.6204C85.7004 81.6858 85.4792 81.8551 85.3678 82.1283C85.2714 82.3646 85.2813 82.5905 85.3974 82.8061C85.5135 83.0217 85.7477 83.255 86.0999 83.506L87.118 84.2219C87.7073 84.6377 88.0977 85.0671 88.2892 85.5103C88.4807 85.9535 88.4744 86.4253 88.2704 86.9255C88.0977 87.349 87.821 87.6764 87.4403 87.9078C87.0639 88.1373 86.6196 88.2568 86.1075 88.2662C85.5984 88.277 85.0585 88.1659 84.4876 87.9331C83.6958 87.6102 83.1187 87.1779 82.7561 86.6363C82.3948 86.0916 82.285 85.4831 82.4268 84.8107L83.8398 85.1508C83.7813 85.5313 83.8446 85.8632 84.0298 86.1464C84.2162 86.4264 84.5166 86.6509 84.9309 86.8199C85.382 87.0039 85.7808 87.0574 86.1272 86.9803C86.4749 86.9002 86.7045 86.7235 86.8158 86.4504C86.906 86.2294 86.8988 86.01 86.7944 85.792C86.6931 85.5753 86.4893 85.3597 86.183 85.1453L85.0931 84.3948C84.4946 83.9753 84.1043 83.5369 83.9221 83.0796C83.743 82.6236 83.7561 82.1439 83.9614 81.6406C84.1316 81.2232 84.3971 80.9055 84.7581 80.6876C85.119 80.4697 85.5407 80.3572 86.0233 80.35C86.5071 80.3397 87.0145 80.4428 87.5455 80.6593C88.3096 80.971 88.8436 81.382 89.1472 81.8925C89.4522 82.3998 89.5626 82.9585 89.4785 83.5685ZM95.7804 86.1387L94.4427 85.8508C94.4556 85.67 94.4347 85.4843 94.38 85.2937C94.3283 85.1044 94.2261 84.9249 94.0734 84.7553C93.9207 84.5856 93.7016 84.4426 93.4162 84.3262C93.0264 84.1672 92.6655 84.122 92.3333 84.1905C92.0023 84.256 91.7811 84.4253 91.6697 84.6984C91.5733 84.9348 91.5832 85.1607 91.6993 85.3763C91.8154 85.5919 92.0496 85.8252 92.4018 86.0762L93.4199 86.7921C94.0092 87.2078 94.3996 87.6373 94.5911 88.0805C94.7826 88.5237 94.7763 88.9954 94.5723 89.4957C94.3996 89.9192 94.1229 90.2466 93.7422 90.4779C93.3658 90.7074 92.9215 90.8269 92.4094 90.8364C91.9003 90.8471 91.3604 90.7361 90.7895 90.5033C89.9977 90.1803 89.4206 89.7481 89.058 89.2065C88.6967 88.6618 88.5869 88.0533 88.7287 87.3809L90.1417 87.7209C90.0832 88.1015 90.1465 88.4334 90.3317 88.7165C90.5181 88.9966 90.8185 89.2211 91.2328 89.3901C91.6839 89.5741 92.0827 89.6275 92.4291 89.5505C92.7768 89.4703 93.0064 89.2937 93.1177 89.0206C93.2079 88.7996 93.2007 88.5801 93.0963 88.3622C92.995 88.1455 92.7912 87.9299 92.4849 87.7155L91.395 86.9649C90.7965 86.5455 90.4062 86.1071 90.224 85.6498C90.0449 85.1937 90.058 84.714 90.2633 84.2107C90.4335 83.7934 90.699 83.4757 91.06 83.2578C91.4209 83.0399 91.8426 82.9273 92.3252 82.9201C92.809 82.9098 93.3164 83.013 93.8474 83.2295C94.6115 83.5412 95.1455 83.9522 95.4491 84.4626C95.7541 84.97 95.8645 85.5287 95.7804 86.1387Z" fill="white"/>
<rect x="114" y="105" width="151" height="45" rx="22.5" fill="url(#paint6_linear_4327_3929)" fill-opacity="0.14"/>
<rect x="114.5" y="105.5" width="150" height="44" rx="22" stroke="#936900" stroke-opacity="0.6"/>
<path opacity="0.6" d="M153.825 126.129H152.274C152.215 125.798 152.104 125.506 151.941 125.254C151.779 125.002 151.58 124.789 151.345 124.613C151.109 124.437 150.846 124.305 150.554 124.215C150.266 124.126 149.959 124.081 149.634 124.081C149.048 124.081 148.522 124.228 148.058 124.523C147.598 124.818 147.233 125.251 146.965 125.821C146.7 126.391 146.567 127.087 146.567 127.909C146.567 128.738 146.7 129.437 146.965 130.007C147.233 130.577 147.599 131.008 148.063 131.3C148.527 131.591 149.049 131.737 149.629 131.737C149.951 131.737 150.256 131.694 150.544 131.608C150.836 131.518 151.099 131.388 151.335 131.215C151.57 131.043 151.769 130.832 151.931 130.584C152.097 130.332 152.211 130.044 152.274 129.719L153.825 129.724C153.743 130.224 153.582 130.685 153.343 131.106C153.108 131.523 152.805 131.885 152.433 132.19C152.066 132.491 151.645 132.725 151.171 132.891C150.697 133.056 150.18 133.139 149.62 133.139C148.738 133.139 147.952 132.93 147.263 132.513C146.574 132.092 146.03 131.49 145.632 130.708C145.238 129.926 145.041 128.993 145.041 127.909C145.041 126.822 145.24 125.889 145.637 125.11C146.035 124.328 146.579 123.728 147.268 123.31C147.957 122.889 148.741 122.679 149.62 122.679C150.16 122.679 150.664 122.757 151.131 122.913C151.602 123.065 152.024 123.29 152.399 123.589C152.773 123.884 153.083 124.245 153.328 124.673C153.574 125.097 153.739 125.582 153.825 126.129ZM157.067 133.169C156.583 133.169 156.145 133.08 155.754 132.901C155.363 132.718 155.053 132.455 154.825 132.11C154.599 131.765 154.486 131.343 154.486 130.842C154.486 130.411 154.569 130.057 154.735 129.778C154.901 129.5 155.124 129.28 155.406 129.117C155.688 128.955 156.003 128.832 156.351 128.749C156.699 128.666 157.053 128.603 157.415 128.56C157.872 128.507 158.243 128.464 158.528 128.431C158.813 128.395 159.021 128.337 159.15 128.257C159.279 128.178 159.344 128.048 159.344 127.869V127.835C159.344 127.4 159.221 127.064 158.976 126.825C158.734 126.587 158.373 126.467 157.892 126.467C157.392 126.467 156.997 126.578 156.709 126.8C156.424 127.019 156.227 127.263 156.117 127.531L154.72 127.213C154.886 126.749 155.128 126.375 155.446 126.089C155.767 125.801 156.137 125.592 156.555 125.463C156.972 125.33 157.411 125.264 157.872 125.264C158.177 125.264 158.5 125.301 158.842 125.374C159.186 125.443 159.508 125.572 159.806 125.761C160.108 125.95 160.355 126.22 160.547 126.572C160.739 126.92 160.835 127.372 160.835 127.929V133H159.383V131.956H159.324C159.228 132.148 159.084 132.337 158.891 132.523C158.699 132.708 158.452 132.862 158.151 132.985C157.849 133.108 157.488 133.169 157.067 133.169ZM157.39 131.976C157.801 131.976 158.152 131.895 158.444 131.732C158.739 131.57 158.963 131.358 159.115 131.096C159.271 130.831 159.349 130.547 159.349 130.246V129.261C159.296 129.314 159.193 129.364 159.04 129.411C158.891 129.454 158.721 129.492 158.528 129.525C158.336 129.555 158.149 129.583 157.967 129.609C157.784 129.633 157.632 129.652 157.509 129.669C157.221 129.705 156.957 129.767 156.719 129.853C156.483 129.939 156.294 130.063 156.152 130.226C156.013 130.385 155.943 130.597 155.943 130.862C155.943 131.23 156.079 131.509 156.351 131.697C156.623 131.883 156.969 131.976 157.39 131.976ZM162.115 133V125.364H163.552V126.577H163.631C163.771 126.166 164.016 125.843 164.367 125.607C164.722 125.369 165.123 125.249 165.57 125.249C165.663 125.249 165.773 125.253 165.898 125.259C166.028 125.266 166.129 125.274 166.202 125.284V126.706C166.142 126.689 166.036 126.671 165.884 126.651C165.731 126.628 165.579 126.616 165.426 126.616C165.075 126.616 164.762 126.691 164.487 126.84C164.215 126.986 163.999 127.19 163.84 127.452C163.681 127.71 163.602 128.005 163.602 128.337V133H162.115ZM169.806 133.154C169.054 133.154 168.406 132.993 167.862 132.672C167.322 132.347 166.904 131.891 166.609 131.305C166.318 130.715 166.172 130.024 166.172 129.232C166.172 128.449 166.318 127.76 166.609 127.163C166.904 126.567 167.315 126.101 167.842 125.766C168.372 125.432 168.992 125.264 169.702 125.264C170.132 125.264 170.55 125.335 170.954 125.478C171.359 125.621 171.722 125.844 172.043 126.149C172.365 126.454 172.618 126.85 172.804 127.337C172.989 127.821 173.082 128.41 173.082 129.102V129.629H167.012V128.516H171.626C171.626 128.125 171.546 127.778 171.387 127.477C171.228 127.172 171.004 126.931 170.716 126.756C170.431 126.58 170.096 126.492 169.711 126.492C169.294 126.492 168.929 126.595 168.618 126.8C168.309 127.003 168.071 127.268 167.902 127.596C167.736 127.921 167.653 128.274 167.653 128.655V129.525C167.653 130.035 167.743 130.469 167.922 130.827C168.104 131.185 168.358 131.459 168.682 131.648C169.007 131.833 169.387 131.926 169.821 131.926C170.103 131.926 170.359 131.886 170.591 131.807C170.823 131.724 171.024 131.601 171.193 131.439C171.362 131.277 171.491 131.076 171.581 130.837L172.988 131.091C172.875 131.505 172.673 131.868 172.381 132.18C172.093 132.488 171.73 132.728 171.292 132.901C170.858 133.07 170.363 133.154 169.806 133.154ZM177.323 133.154C176.57 133.154 175.922 132.993 175.379 132.672C174.839 132.347 174.421 131.891 174.126 131.305C173.834 130.715 173.688 130.024 173.688 129.232C173.688 128.449 173.834 127.76 174.126 127.163C174.421 126.567 174.832 126.101 175.359 125.766C175.889 125.432 176.509 125.264 177.218 125.264C177.649 125.264 178.067 125.335 178.471 125.478C178.876 125.621 179.238 125.844 179.56 126.149C179.881 126.454 180.135 126.85 180.321 127.337C180.506 127.821 180.599 128.41 180.599 129.102V129.629H174.529V128.516H179.142C179.142 128.125 179.063 127.778 178.904 127.477C178.745 127.172 178.521 126.931 178.233 126.756C177.947 126.58 177.613 126.492 177.228 126.492C176.811 126.492 176.446 126.595 176.134 126.8C175.826 127.003 175.588 127.268 175.419 127.596C175.253 127.921 175.17 128.274 175.17 128.655V129.525C175.17 130.035 175.259 130.469 175.438 130.827C175.621 131.185 175.874 131.459 176.199 131.648C176.524 131.833 176.903 131.926 177.338 131.926C177.619 131.926 177.876 131.886 178.108 131.807C178.34 131.724 178.541 131.601 178.71 131.439C178.879 131.277 179.008 131.076 179.098 130.837L180.505 131.091C180.392 131.505 180.19 131.868 179.898 132.18C179.61 132.488 179.247 132.728 178.809 132.901C178.375 133.07 177.88 133.154 177.323 133.154ZM181.548 133V125.364H182.985V126.577H183.065C183.204 126.166 183.449 125.843 183.8 125.607C184.155 125.369 184.556 125.249 185.004 125.249C185.096 125.249 185.206 125.253 185.332 125.259C185.461 125.266 185.562 125.274 185.635 125.284V126.706C185.575 126.689 185.469 126.671 185.317 126.651C185.164 126.628 185.012 126.616 184.859 126.616C184.508 126.616 184.195 126.691 183.92 126.84C183.648 126.986 183.433 127.19 183.273 127.452C183.114 127.71 183.035 128.005 183.035 128.337V133H181.548ZM190.206 133H188.575L192.239 122.818H194.014L197.678 133H196.047L193.169 124.668H193.089L190.206 133ZM190.479 129.013H195.769V130.305H190.479V129.013ZM199.816 128.466V133H198.329V125.364H199.756V126.607H199.85C200.026 126.202 200.301 125.877 200.676 125.632C201.054 125.387 201.529 125.264 202.103 125.264C202.623 125.264 203.079 125.374 203.47 125.592C203.861 125.808 204.164 126.129 204.38 126.557C204.595 126.984 204.703 127.513 204.703 128.143V133H203.216V128.322C203.216 127.768 203.072 127.336 202.784 127.024C202.495 126.709 202.099 126.552 201.596 126.552C201.251 126.552 200.944 126.626 200.676 126.776C200.411 126.925 200.2 127.143 200.044 127.432C199.892 127.717 199.816 128.062 199.816 128.466ZM207.17 125.364L208.855 128.337L210.555 125.364H212.181L209.8 129.182L212.201 133H210.575L208.855 130.146L207.14 133H205.509L207.886 129.182L205.539 125.364H207.17ZM213.007 133V125.364H214.494V133H213.007ZM213.758 124.185C213.499 124.185 213.277 124.099 213.092 123.927C212.91 123.751 212.818 123.542 212.818 123.3C212.818 123.055 212.91 122.846 213.092 122.674C213.277 122.498 213.499 122.411 213.758 122.411C214.017 122.411 214.237 122.498 214.419 122.674C214.605 122.846 214.698 123.055 214.698 123.3C214.698 123.542 214.605 123.751 214.419 123.927C214.237 124.099 214.017 124.185 213.758 124.185ZM219.085 133.154C218.332 133.154 217.684 132.993 217.141 132.672C216.601 132.347 216.183 131.891 215.888 131.305C215.596 130.715 215.451 130.024 215.451 129.232C215.451 128.449 215.596 127.76 215.888 127.163C216.183 126.567 216.594 126.101 217.121 125.766C217.651 125.432 218.271 125.264 218.98 125.264C219.411 125.264 219.829 125.335 220.233 125.478C220.638 125.621 221.001 125.844 221.322 126.149C221.644 126.454 221.897 126.85 222.083 127.337C222.268 127.821 222.361 128.41 222.361 129.102V129.629H216.291V128.516H220.904C220.904 128.125 220.825 127.778 220.666 127.477C220.507 127.172 220.283 126.931 219.995 126.756C219.71 126.58 219.375 126.492 218.99 126.492C218.573 126.492 218.208 126.595 217.897 126.8C217.588 127.003 217.35 127.268 217.181 127.596C217.015 127.921 216.932 128.274 216.932 128.655V129.525C216.932 130.035 217.022 130.469 217.201 130.827C217.383 131.185 217.636 131.459 217.961 131.648C218.286 131.833 218.666 131.926 219.1 131.926C219.381 131.926 219.638 131.886 219.87 131.807C220.102 131.724 220.303 131.601 220.472 131.439C220.641 131.277 220.77 131.076 220.86 130.837L222.267 131.091C222.154 131.505 221.952 131.868 221.66 132.18C221.372 132.488 221.009 132.728 220.571 132.901C220.137 133.07 219.642 133.154 219.085 133.154ZM226.875 125.364V126.557H222.704V125.364H226.875ZM223.822 123.534H225.309V130.758C225.309 131.046 225.352 131.263 225.438 131.409C225.524 131.552 225.635 131.649 225.771 131.702C225.911 131.752 226.061 131.777 226.224 131.777C226.343 131.777 226.447 131.769 226.537 131.752C226.626 131.736 226.696 131.722 226.746 131.712L227.014 132.94C226.928 132.973 226.805 133.007 226.646 133.04C226.487 133.076 226.288 133.096 226.05 133.099C225.659 133.106 225.294 133.036 224.956 132.891C224.618 132.745 224.345 132.519 224.136 132.214C223.927 131.91 223.822 131.527 223.822 131.066V123.534ZM228.759 135.864C228.537 135.864 228.335 135.845 228.153 135.809C227.97 135.776 227.834 135.739 227.745 135.7L228.103 134.482C228.375 134.554 228.617 134.586 228.829 134.576C229.041 134.566 229.228 134.487 229.39 134.337C229.556 134.188 229.702 133.945 229.828 133.607L230.012 133.099L227.218 125.364H228.809L230.743 131.29H230.822L232.756 125.364H234.352L231.205 134.019C231.059 134.417 230.874 134.753 230.648 135.028C230.423 135.307 230.154 135.516 229.843 135.655C229.531 135.794 229.17 135.864 228.759 135.864Z" fill="white"/>
<rect x="92" y="21.8135" width="181" height="45" rx="22.5" transform="rotate(-6.92203 92 21.8135)" fill="url(#paint7_linear_4327_3929)" fill-opacity="0.14"/>
<rect x="92.5566" y="22.2496" width="180" height="44" rx="22" transform="rotate(-6.92203 92.5566 22.2496)" stroke="#936900" stroke-opacity="0.6"/>
<path opacity="0.7" d="M126.988 35.5146L128.216 45.6222L126.69 45.8074L125.463 35.6998L126.988 35.5146ZM129.623 45.4513L128.703 37.8706L130.119 37.6987L130.269 38.9325L130.363 38.9211C130.47 38.4841 130.689 38.127 131.019 37.8499C131.349 37.5694 131.764 37.3988 132.264 37.3381C132.771 37.2766 133.209 37.3435 133.58 37.5389C133.955 37.7338 134.249 38.0286 134.464 38.4232L134.543 38.4136C134.675 37.987 134.924 37.6296 135.289 37.3415C135.655 37.05 136.11 36.8712 136.656 36.8049C137.344 36.7214 137.931 36.8688 138.418 37.2471C138.908 37.625 139.206 38.2482 139.311 39.1169L139.928 44.2003L138.452 44.3794L137.852 39.4342C137.79 38.9209 137.605 38.5661 137.297 38.3697C136.99 38.1734 136.642 38.0988 136.253 38.1459C135.773 38.2042 135.417 38.3976 135.187 38.7261C134.956 39.0513 134.868 39.4442 134.924 39.9048L135.511 44.7365L134.04 44.9151L133.428 39.8761C133.379 39.4648 133.21 39.1497 132.923 38.9308C132.636 38.7119 132.287 38.6274 131.876 38.6774C131.596 38.7113 131.347 38.8167 131.128 38.9935C130.912 39.1667 130.747 39.392 130.634 39.6695C130.524 39.9466 130.49 40.2562 130.531 40.5984L131.099 45.2722L129.623 45.4513ZM141.556 46.8873L140.291 36.4638L141.732 36.2889L141.881 37.5178L142.004 37.5028C142.071 37.3345 142.172 37.1369 142.308 36.91C142.444 36.6832 142.646 36.475 142.913 36.2856C143.18 36.093 143.549 35.9681 144.02 35.9109C144.632 35.8366 145.197 35.925 145.715 36.1759C146.233 36.4269 146.663 36.827 147.007 37.3762C147.354 37.925 147.578 38.6091 147.677 39.4283C147.776 40.2476 147.725 40.9667 147.523 41.5855C147.321 42.201 147 42.6956 146.562 43.0694C146.122 43.4399 145.597 43.6623 144.985 43.7366C144.524 43.7925 144.138 43.761 143.826 43.6419C143.518 43.5224 143.269 43.369 143.079 43.1817C142.89 42.9943 142.741 42.8255 142.632 42.675L142.544 42.6858L143.032 46.7081L141.556 46.8873ZM142.197 40.0786C142.262 40.6116 142.396 41.0695 142.599 41.4521C142.802 41.8347 143.064 42.1218 143.385 42.3133C143.705 42.5014 144.077 42.5698 144.501 42.5182C144.942 42.4647 145.297 42.3032 145.564 42.0336C145.832 41.7608 146.016 41.4128 146.119 40.9897C146.224 40.5663 146.246 40.1012 146.185 39.5945C146.124 39.0944 145.994 38.6544 145.794 38.2747C145.598 37.8946 145.336 37.6075 145.008 37.4135C144.684 37.2192 144.3 37.1489 143.856 37.2029C143.428 37.2548 143.08 37.409 142.81 37.6654C142.544 37.9214 142.36 38.256 142.256 38.6692C142.153 39.0824 142.133 39.5522 142.197 40.0786ZM152.306 42.8529C151.595 42.9391 150.955 42.8516 150.386 42.5902C149.816 42.3287 149.35 41.923 148.986 41.3728C148.622 40.8227 148.392 40.1561 148.297 39.3731C148.202 38.5867 148.265 37.8813 148.486 37.2568C148.707 36.6323 149.063 36.125 149.553 35.7349C150.044 35.3449 150.644 35.1067 151.355 35.0205C152.065 34.9342 152.705 35.0217 153.275 35.2832C153.844 35.5446 154.311 35.952 154.675 36.5054C155.039 37.0588 155.269 37.7287 155.365 38.5151C155.46 39.2981 155.396 40.0003 155.175 40.6215C154.953 41.2427 154.597 41.7483 154.107 42.1384C153.617 42.5284 153.016 42.7666 152.306 42.8529ZM152.16 41.6135C152.621 41.5576 152.988 41.3895 153.261 41.1093C153.534 40.829 153.718 40.4778 153.814 40.0555C153.913 39.6328 153.933 39.178 153.874 38.6911C153.815 38.2074 153.687 37.7722 153.49 37.3855C153.295 36.9951 153.032 36.6949 152.699 36.4848C152.367 36.2748 151.97 36.1978 151.509 36.2537C151.045 36.31 150.675 36.4801 150.399 36.7641C150.127 37.0476 149.941 37.4023 149.843 37.8283C149.747 38.2506 149.728 38.7035 149.787 39.1872C149.846 39.6741 149.973 40.1112 150.167 40.4983C150.364 40.885 150.629 41.1818 150.961 41.3885C151.296 41.5948 151.696 41.6698 152.16 41.6135ZM161.758 35.7357L160.449 36.1349C160.372 35.9706 160.264 35.8186 160.123 35.6787C159.986 35.5384 159.81 35.4313 159.594 35.3574C159.378 35.2834 159.117 35.2651 158.811 35.3022C158.393 35.3529 158.055 35.489 157.798 35.7105C157.541 35.9287 157.43 36.1843 157.466 36.4771C157.497 36.7304 157.615 36.9231 157.821 37.0549C158.028 37.1868 158.346 37.2767 158.776 37.3247L160.013 37.4549C160.731 37.5314 161.281 37.7167 161.664 38.0108C162.046 38.3048 162.27 38.72 162.336 39.2563C162.391 39.7104 162.308 40.1311 162.088 40.5184C161.871 40.902 161.541 41.2225 161.098 41.4799C160.659 41.737 160.133 41.9026 159.521 41.9769C158.672 42.08 157.957 41.9831 157.377 41.6863C156.796 41.3862 156.405 40.9079 156.201 40.2515L157.601 39.8612C157.735 40.2222 157.952 40.4813 158.252 40.6386C158.551 40.7926 158.922 40.8426 159.367 40.7887C159.85 40.73 160.225 40.5827 160.49 40.3468C160.755 40.1077 160.869 39.8417 160.834 39.5489C160.805 39.312 160.692 39.1237 160.495 38.984C160.301 38.844 160.018 38.7548 159.646 38.7165L158.328 38.591C157.601 38.5156 157.047 38.3225 156.666 38.0116C156.287 37.7003 156.065 37.2748 156 36.7352C155.945 36.2877 156.023 35.881 156.232 35.5151C156.442 35.1491 156.755 34.8456 157.173 34.6045C157.591 34.3602 158.085 34.2034 158.654 34.1343C159.473 34.0349 160.14 34.1342 160.653 34.4325C161.166 34.7274 161.535 35.1618 161.758 35.7357ZM166.148 33.3247L166.291 34.5092L162.151 35.0119L162.007 33.8274L166.148 33.3247ZM162.897 31.8764L164.372 31.6972L165.243 38.8683C165.278 39.1546 165.347 39.3649 165.45 39.4993C165.553 39.6304 165.675 39.714 165.816 39.7503C165.96 39.7829 166.113 39.7894 166.274 39.7698C166.392 39.7554 166.495 39.7346 166.582 39.7074C166.669 39.6802 166.736 39.6586 166.784 39.6427L167.199 40.8294C167.117 40.8727 167 40.9204 166.846 40.9725C166.692 41.0278 166.497 41.0715 166.261 41.1036C165.873 41.1573 165.503 41.1321 165.15 41.0281C164.796 40.9241 164.498 40.7333 164.254 40.4558C164.01 40.1782 163.86 39.8108 163.804 39.3535L162.897 31.8764ZM171.21 40.5578C170.463 40.6485 169.8 40.567 169.222 40.3134C168.646 40.0561 168.177 39.654 167.813 39.1072C167.453 38.5566 167.225 37.8882 167.129 37.1018C167.035 36.3253 167.097 35.6234 167.314 34.996C167.535 34.3682 167.887 33.8564 168.37 33.4606C168.856 33.0644 169.451 32.8235 170.155 32.738C170.583 32.6861 171.006 32.7065 171.425 32.7992C171.843 32.892 172.23 33.0703 172.586 33.3343C172.942 33.5983 173.242 33.9609 173.485 34.4222C173.727 34.8802 173.89 35.453 173.974 36.1407L174.037 36.6638L168.011 37.3954L167.877 36.2899L172.457 35.7339C172.41 35.3456 172.289 35.0114 172.095 34.7311C171.9 34.4476 171.649 34.236 171.342 34.0964C171.038 33.9564 170.695 33.9095 170.313 33.9559C169.898 34.0062 169.549 34.1521 169.264 34.3937C168.983 34.6315 168.778 34.9235 168.65 35.2696C168.524 35.612 168.484 35.9724 168.53 36.3508L168.635 37.2145C168.697 37.7212 168.838 38.1414 169.059 38.4752C169.283 38.8086 169.568 39.0494 169.913 39.1978C170.258 39.3429 170.645 39.3893 171.076 39.337C171.356 39.3031 171.606 39.2326 171.827 39.1257C172.047 39.0155 172.232 38.8696 172.38 38.688C172.528 38.5064 172.632 38.2917 172.692 38.0441L174.12 38.1262C174.058 38.5511 173.901 38.9357 173.649 39.2801C173.4 39.6209 173.068 39.9032 172.655 40.127C172.244 40.3471 171.762 40.4907 171.21 40.5578ZM175.386 39.8956L174.466 32.3149L175.892 32.1417L176.038 33.3459L176.117 33.3364C176.206 32.9116 176.41 32.5612 176.731 32.2853C177.054 32.0056 177.438 31.8389 177.882 31.7849C177.974 31.7738 178.083 31.7639 178.209 31.7553C178.338 31.7463 178.439 31.7423 178.513 31.7434L178.684 33.1549C178.623 33.1456 178.516 33.1403 178.362 33.139C178.208 33.1343 178.055 33.1412 177.904 33.1595C177.555 33.2019 177.253 33.3137 176.998 33.4949C176.745 33.6724 176.556 33.9007 176.43 34.1798C176.303 34.4556 176.26 34.758 176.3 35.0871L176.862 39.7164L175.386 39.8956ZM187.735 30.8342C187.625 30.3734 187.364 30.0378 186.951 29.8275C186.538 29.6139 186.042 29.5423 185.463 29.6126C185.048 29.6629 184.698 29.7722 184.411 29.9406C184.124 30.1057 183.91 30.3119 183.77 30.5593C183.632 30.803 183.581 31.068 183.616 31.3542C183.645 31.5944 183.726 31.7949 183.859 31.9557C183.996 32.1161 184.163 32.2444 184.362 32.3404C184.563 32.4328 184.776 32.5055 184.999 32.5585C185.222 32.6082 185.435 32.6458 185.639 32.6712L186.657 32.808C186.989 32.8478 187.333 32.9146 187.688 33.0083C188.043 33.1021 188.379 33.2416 188.695 33.4269C189.012 33.6122 189.278 33.8569 189.496 34.1611C189.716 34.4649 189.854 34.8438 189.909 35.2978C189.979 35.8703 189.892 36.3967 189.65 36.8768C189.411 37.3565 189.028 37.7587 188.499 38.0832C187.975 38.4073 187.317 38.6173 186.528 38.7132C185.771 38.8051 185.102 38.7645 184.52 38.5914C183.938 38.4183 183.464 38.1303 183.098 37.7274C182.731 37.3211 182.494 36.8157 182.388 36.211L183.918 36.0252C183.992 36.3868 184.147 36.6768 184.384 36.8951C184.623 37.1097 184.913 37.2565 185.254 37.3354C185.597 37.4106 185.964 37.4245 186.355 37.3769C186.786 37.3246 187.161 37.2106 187.481 37.035C187.803 36.8556 188.046 36.6325 188.211 36.3654C188.375 36.0951 188.437 35.7954 188.397 35.4664C188.361 35.167 188.245 34.9322 188.051 34.7622C187.86 34.5917 187.612 34.4615 187.308 34.3717C187.006 34.2814 186.669 34.2105 186.295 34.159L185.061 33.9783C184.225 33.8561 183.544 33.6099 183.018 33.2397C182.496 32.8691 182.192 32.3317 182.107 31.6276C182.036 31.0452 182.132 30.5177 182.395 30.0451C182.658 29.5724 183.045 29.1832 183.556 28.8775C184.066 28.5686 184.66 28.3729 185.337 28.2906C186.022 28.2075 186.64 28.2543 187.192 28.431C187.748 28.6073 188.203 28.8876 188.557 29.272C188.91 29.6531 189.126 30.1143 189.205 30.6556L187.735 30.8342ZM192.535 40.6983C192.315 40.725 192.112 40.7313 191.926 40.7171C191.741 40.7061 191.602 40.6863 191.509 40.6576L191.717 39.4053C191.996 39.445 192.24 39.4471 192.449 39.4116C192.658 39.3762 192.835 39.2747 192.978 39.107C193.125 38.939 193.24 38.6796 193.324 38.3288L193.446 37.8032L189.74 30.4605L191.319 30.2688L193.953 35.9187L194.032 35.9091L195.238 29.7931L196.822 29.6007L194.741 38.5725C194.644 38.9849 194.501 39.3412 194.31 39.6414C194.12 39.945 193.878 40.1846 193.586 40.3604C193.293 40.5361 192.943 40.6487 192.535 40.6983ZM199.363 32.4172L199.91 36.9183L198.434 37.0974L197.514 29.5167L198.93 29.3448L199.08 30.5786L199.174 30.5672C199.3 30.1446 199.534 29.789 199.876 29.5004C200.221 29.2114 200.679 29.0324 201.248 28.9633C201.764 28.9005 202.23 28.9542 202.645 29.1242C203.059 29.2909 203.399 29.5736 203.664 29.972C203.929 30.3705 204.1 30.8823 204.176 31.5075L204.761 36.3293L203.286 36.5085L202.722 31.8643C202.655 31.3148 202.46 30.9028 202.136 30.6283C201.812 30.3505 201.4 30.2419 200.9 30.3026C200.557 30.3442 200.262 30.4551 200.014 30.6356C199.768 30.8156 199.586 31.0581 199.466 31.3631C199.349 31.6645 199.315 32.0158 199.363 32.4172ZM208.901 35.9769C208.289 36.0512 207.724 35.9613 207.206 35.707C206.69 35.4491 206.261 35.0455 205.917 34.4963C205.576 33.9434 205.356 33.2573 205.257 32.438C205.157 31.6187 205.209 30.9013 205.411 30.2858C205.617 29.6699 205.941 29.1781 206.384 28.8105C206.826 28.4429 207.352 28.2222 207.961 28.1483C208.431 28.0911 208.819 28.1242 209.125 28.2474C209.433 28.3668 209.679 28.5206 209.862 28.7088C210.048 28.8965 210.196 29.0639 210.304 29.211L210.392 29.2003L209.936 25.4445L211.412 25.2653L212.639 35.3729L211.198 35.5479L211.055 34.3683L210.931 34.3833C210.862 34.5553 210.756 34.7551 210.614 34.9828C210.474 35.21 210.269 35.4186 209.998 35.6084C209.728 35.7982 209.362 35.921 208.901 35.9769ZM209.074 34.6789C209.499 34.6273 209.844 34.4719 210.109 34.2127C210.378 33.9497 210.564 33.6083 210.666 33.1885C210.772 32.7683 210.793 32.2917 210.728 31.7587C210.664 31.2323 210.533 30.7808 210.333 30.4044C210.134 30.0279 209.875 29.7472 209.555 29.5624C209.235 29.3775 208.86 29.3112 208.429 29.3635C207.985 29.4174 207.629 29.5775 207.36 29.8438C207.092 30.1101 206.907 30.4514 206.804 30.8679C206.704 31.284 206.684 31.7421 206.745 32.2422C206.807 32.7489 206.938 33.1954 207.138 33.5818C207.339 33.9681 207.601 34.2617 207.926 34.4627C208.254 34.6599 208.637 34.732 209.074 34.6789ZM214.05 35.2016L213.13 27.6209L214.556 27.4477L214.703 28.6519L214.782 28.6424C214.87 28.2176 215.075 27.8672 215.395 27.5913C215.718 27.3116 216.102 27.1449 216.546 27.0909C216.639 27.0798 216.748 27.0699 216.873 27.0613C217.002 27.0523 217.104 27.0483 217.177 27.0494L217.349 28.4609C217.288 28.4516 217.18 28.4463 217.026 28.445C216.872 28.4403 216.719 28.4472 216.568 28.4655C216.219 28.5079 215.917 28.6197 215.662 28.8009C215.41 28.9784 215.221 29.2067 215.094 29.4858C214.968 29.7616 214.924 30.064 214.964 30.3931L215.526 35.0224L214.05 35.2016ZM221.63 34.4367C220.919 34.523 220.279 34.4354 219.71 34.174C219.141 33.9125 218.674 33.5068 218.31 32.9567C217.946 32.4065 217.717 31.74 217.621 30.9569C217.526 30.1705 217.589 29.4651 217.81 28.8406C218.032 28.2161 218.387 27.7088 218.878 27.3188C219.368 26.9287 219.968 26.6906 220.679 26.6043C221.39 26.518 222.03 26.6056 222.599 26.867C223.168 27.1284 223.635 27.5358 223.999 28.0892C224.364 28.6426 224.593 29.3125 224.689 30.0989C224.784 30.8819 224.721 31.5841 224.499 32.2053C224.277 32.8265 223.921 33.3321 223.431 33.7222C222.941 34.1122 222.34 34.3504 221.63 34.4367ZM221.484 33.1973C221.945 33.1414 222.312 32.9733 222.585 32.6931C222.858 32.4129 223.042 32.0616 223.138 31.6393C223.237 31.2167 223.257 30.7618 223.198 30.2749C223.139 29.7912 223.011 29.356 222.814 28.9693C222.62 28.5789 222.356 28.2787 222.024 28.0687C221.691 27.8586 221.294 27.7816 220.834 27.8375C220.37 27.8938 220 28.0639 219.724 28.3479C219.451 28.6314 219.265 28.9861 219.167 29.4121C219.071 29.8344 219.053 30.2873 219.111 30.771C219.17 31.258 219.297 31.695 219.491 32.0821C219.688 32.4688 219.953 32.7656 220.285 32.9723C220.621 33.1786 221.02 33.2536 221.484 33.1973ZM226.097 33.7391L225.177 26.1584L226.593 25.9864L226.743 27.2202L226.837 27.2089C226.944 26.7718 227.163 26.4147 227.493 26.1376C227.823 25.8571 228.238 25.6866 228.738 25.6259C229.245 25.5643 229.684 25.6313 230.054 25.8266C230.429 26.0216 230.723 26.3163 230.938 26.7109L231.017 26.7014C231.149 26.2747 231.398 25.9173 231.763 25.6292C232.129 25.3378 232.584 25.1589 233.13 25.0926C233.818 25.0091 234.405 25.1565 234.892 25.5348C235.382 25.9127 235.68 26.536 235.785 27.4046L236.402 32.488L234.926 32.6672L234.326 27.7219C234.264 27.2087 234.079 26.8538 233.771 26.6575C233.464 26.4611 233.116 26.3865 232.727 26.4336C232.247 26.4919 231.892 26.6853 231.661 27.0138C231.43 27.339 231.343 27.7319 231.398 28.1925L231.985 33.0243L230.514 33.2028L229.903 28.1638C229.853 27.7525 229.684 27.4374 229.397 27.2185C229.11 26.9996 228.761 26.9152 228.35 26.9651C228.07 26.999 227.821 27.1044 227.602 27.2812C227.386 27.4544 227.221 27.6797 227.108 27.9572C226.998 28.2343 226.964 28.5439 227.005 28.8861L227.573 33.5599L226.097 33.7391ZM240.971 32.0886C240.224 32.1793 239.561 32.0978 238.983 31.8441C238.408 31.5868 237.938 31.1847 237.575 30.6379C237.214 30.0874 236.986 29.419 236.89 28.6326C236.796 27.8561 236.858 27.1542 237.075 26.5268C237.296 25.899 237.648 25.3872 238.131 24.9913C238.617 24.5951 239.212 24.3543 239.916 24.2688C240.344 24.2168 240.767 24.2373 241.186 24.33C241.604 24.4227 241.992 24.6011 242.348 24.8651C242.703 25.129 243.003 25.4916 243.246 25.9529C243.488 26.4109 243.651 26.9838 243.735 27.6714L243.798 28.1946L237.772 28.9262L237.638 27.8206L242.218 27.2646C242.171 26.8764 242.05 26.5421 241.856 26.2619C241.661 25.9784 241.41 25.7668 241.103 25.6271C240.799 25.4871 240.456 25.4403 240.074 25.4866C239.66 25.5369 239.31 25.6829 239.026 25.9244C238.744 26.1623 238.539 26.4542 238.411 26.8004C238.285 27.1428 238.246 27.5032 238.292 27.8815L238.396 28.7452C238.458 29.2519 238.599 29.6722 238.82 30.0059C239.044 30.3393 239.329 30.5802 239.674 30.7286C240.019 30.8737 240.407 30.9201 240.838 30.8678C241.117 30.8338 241.368 30.7634 241.588 30.6564C241.809 30.5462 241.993 30.4003 242.141 30.2187C242.289 30.0371 242.394 29.8225 242.454 29.5748L243.881 29.657C243.819 30.0818 243.662 30.4665 243.41 30.8109C243.161 31.1516 242.83 31.4339 242.416 31.6577C242.005 31.8779 241.524 32.0215 240.971 32.0886Z" fill="white"/>
<defs>
<linearGradient id="paint0_linear_4327_3929" x1="262.979" y1="45.1553" x2="385.647" y2="87.6472" gradientUnits="userSpaceOnUse">
<stop stop-color="white" stop-opacity="0.5"/>
<stop offset="1" stop-color="white" stop-opacity="0.6"/>
</linearGradient>
<linearGradient id="paint1_linear_4327_3929" x1="134.176" y1="62.75" x2="245.559" y2="96.9857" gradientUnits="userSpaceOnUse">
<stop stop-color="white" stop-opacity="0.5"/>
<stop offset="1" stop-color="white" stop-opacity="0.6"/>
</linearGradient>
<linearGradient id="paint2_linear_4327_3929" x1="388" y1="20.3227" x2="388" y2="57.7591" gradientUnits="userSpaceOnUse">
<stop stop-color="#FFE1BE"/>
<stop offset="1" stop-color="#FFA200"/>
</linearGradient>
<linearGradient id="paint3_linear_4327_3929" x1="66" y1="26.1091" x2="66" y2="46.7636" gradientUnits="userSpaceOnUse">
<stop stop-color="#FFE1BE"/>
<stop offset="1" stop-color="#FFA200"/>
</linearGradient>
<linearGradient id="paint4_linear_4327_3929" x1="274.408" y1="108.75" x2="399.097" y2="152.855" gradientUnits="userSpaceOnUse">
<stop stop-color="white" stop-opacity="0.5"/>
<stop offset="1" stop-color="white" stop-opacity="0.6"/>
</linearGradient>
<linearGradient id="paint5_linear_4327_3929" x1="25.1029" y1="33.75" x2="135.753" y2="67.4905" gradientUnits="userSpaceOnUse">
<stop stop-color="white" stop-opacity="0.5"/>
<stop offset="1" stop-color="white" stop-opacity="0.6"/>
</linearGradient>
<linearGradient id="paint6_linear_4327_3929" x1="123.798" y1="108.75" x2="252.438" y2="156.135" gradientUnits="userSpaceOnUse">
<stop stop-color="white" stop-opacity="0.5"/>
<stop offset="1" stop-color="white" stop-opacity="0.6"/>
</linearGradient>
<linearGradient id="paint7_linear_4327_3929" x1="103.744" y1="25.5635" x2="250.293" y2="90.2703" gradientUnits="userSpaceOnUse">
<stop stop-color="white" stop-opacity="0.5"/>
<stop offset="1" stop-color="white" stop-opacity="0.6"/>
</linearGradient>
<clipPath id="clip0_4327_3929">
<rect width="24.6256" height="24.6256" fill="white" transform="translate(29 137) rotate(-120)"/>
</clipPath>
</defs>
</svg>
