<svg width="445" height="315" viewBox="0 0 445 315" fill="none" xmlns="http://www.w3.org/2000/svg">
<path opacity="0.1" d="M203.434 31H367.049M203.434 31L122 170.708M203.434 31L230.982 79.5615M367.049 31L444 172.949M367.049 31L337.827 81.8028M444 172.949L364.06 314.151M444 172.949L391.703 172.585M364.06 314.151H204.181M364.06 314.151L337.827 267.907M204.181 314.151L122 170.708M204.181 314.151L230.982 267.556M122 170.708L178.78 171.103M230.982 79.5615L337.827 81.8028M230.982 79.5615L337.827 267.907M230.982 79.5615L178.78 171.103M337.827 81.8028L391.703 172.585M337.827 81.8028L230.982 267.556M391.703 172.585L337.827 267.907M391.703 172.585L338.659 172.216M337.827 267.907L230.982 267.556M230.982 267.556L178.78 171.103M178.78 171.103L338.659 172.216M338.659 172.216L312.51 127.376H258.719L232.571 172.216L259.466 220.016H311.763L338.659 172.216Z" stroke="#FCEB00" stroke-width="1.4942"/>
<path opacity="0.34" d="M175.119 14V3.81818H178.748C179.54 3.81818 180.196 3.96236 180.717 4.25071C181.237 4.53906 181.626 4.93347 181.885 5.43395C182.143 5.93111 182.273 6.49124 182.273 7.11435C182.273 7.74077 182.142 8.30421 181.88 8.80469C181.621 9.30185 181.23 9.69626 180.707 9.98793C180.186 10.2763 179.532 10.4205 178.743 10.4205H176.247V9.1179H178.604C179.104 9.1179 179.51 9.03172 179.822 8.85938C180.133 8.68371 180.362 8.44508 180.508 8.14347C180.654 7.84186 180.727 7.49882 180.727 7.11435C180.727 6.72988 180.654 6.38849 180.508 6.0902C180.362 5.7919 180.132 5.55824 179.817 5.3892C179.505 5.22017 179.094 5.13565 178.584 5.13565H176.655V14H175.119ZM185.548 14.169C185.064 14.169 184.627 14.0795 184.236 13.9006C183.845 13.7183 183.535 13.4548 183.306 13.1101C183.081 12.7654 182.968 12.3428 182.968 11.8423C182.968 11.4115 183.051 11.0568 183.217 10.7784C183.382 10.5 183.606 10.2796 183.888 10.1172C184.17 9.95478 184.484 9.83215 184.832 9.74929C185.18 9.66643 185.535 9.60346 185.896 9.56037C186.354 9.50734 186.725 9.46425 187.01 9.43111C187.295 9.39465 187.502 9.33665 187.631 9.2571C187.761 9.17756 187.825 9.0483 187.825 8.86932V8.83452C187.825 8.40033 187.703 8.06392 187.457 7.82528C187.215 7.58665 186.854 7.46733 186.374 7.46733C185.873 7.46733 185.479 7.57836 185.19 7.80043C184.905 8.01918 184.708 8.26278 184.599 8.53125L183.202 8.21307C183.367 7.74905 183.609 7.37453 183.928 7.08949C184.249 6.80114 184.619 6.59233 185.036 6.46307C185.454 6.33049 185.893 6.2642 186.354 6.2642C186.659 6.2642 186.982 6.30066 187.323 6.37358C187.668 6.44318 187.989 6.57244 188.288 6.76136C188.589 6.95028 188.836 7.22041 189.028 7.57173C189.221 7.91974 189.317 8.37216 189.317 8.92898V14H187.865V12.956H187.805C187.709 13.1482 187.565 13.3371 187.373 13.5227C187.181 13.7083 186.934 13.8625 186.632 13.9851C186.331 14.1077 185.969 14.169 185.548 14.169ZM185.871 12.9759C186.282 12.9759 186.634 12.8946 186.925 12.7322C187.22 12.5698 187.444 12.3577 187.597 12.0959C187.752 11.8307 187.83 11.5473 187.83 11.2457V10.2614C187.777 10.3144 187.674 10.3641 187.522 10.4105C187.373 10.4536 187.202 10.4917 187.01 10.5249C186.818 10.5547 186.63 10.5829 186.448 10.6094C186.266 10.6326 186.113 10.6525 185.991 10.669C185.702 10.7055 185.439 10.7668 185.2 10.853C184.965 10.9392 184.776 11.0634 184.634 11.2259C184.494 11.3849 184.425 11.5971 184.425 11.8622C184.425 12.2301 184.561 12.5085 184.832 12.6974C185.104 12.883 185.451 12.9759 185.871 12.9759ZM196.459 8.22798L195.112 8.46662C195.055 8.29427 194.966 8.13021 194.843 7.97443C194.724 7.81865 194.562 7.69105 194.356 7.59162C194.151 7.49219 193.894 7.44247 193.585 7.44247C193.165 7.44247 192.813 7.53693 192.531 7.72585C192.25 7.91146 192.109 8.15175 192.109 8.44673C192.109 8.70194 192.203 8.90743 192.392 9.06321C192.581 9.21899 192.886 9.34659 193.307 9.44602L194.52 9.72443C195.223 9.88684 195.746 10.1371 196.091 10.4751C196.436 10.8132 196.608 11.2524 196.608 11.7926C196.608 12.25 196.476 12.6577 196.21 13.0156C195.949 13.3703 195.582 13.6487 195.112 13.8509C194.644 14.053 194.102 14.1541 193.486 14.1541C192.631 14.1541 191.933 13.9718 191.393 13.6072C190.853 13.2393 190.521 12.7173 190.399 12.0412L191.835 11.8224C191.925 12.197 192.109 12.4804 192.387 12.6726C192.666 12.8615 193.029 12.956 193.476 12.956C193.963 12.956 194.353 12.8549 194.644 12.6527C194.936 12.4472 195.082 12.197 195.082 11.902C195.082 11.6634 194.992 11.4628 194.813 11.3004C194.638 11.138 194.368 11.0154 194.003 10.9325L192.71 10.6491C191.998 10.4867 191.471 10.2282 191.129 9.87358C190.791 9.51894 190.622 9.06984 190.622 8.52628C190.622 8.07552 190.748 7.68111 191 7.34304C191.252 7.00497 191.6 6.74148 192.044 6.55256C192.488 6.36032 192.997 6.2642 193.571 6.2642C194.396 6.2642 195.045 6.44318 195.519 6.80114C195.993 7.15578 196.307 7.63139 196.459 8.22798ZM203.405 8.22798L202.058 8.46662C202.001 8.29427 201.912 8.13021 201.789 7.97443C201.67 7.81865 201.507 7.69105 201.302 7.59162C201.096 7.49219 200.84 7.44247 200.531 7.44247C200.11 7.44247 199.759 7.53693 199.477 7.72585C199.196 7.91146 199.055 8.15175 199.055 8.44673C199.055 8.70194 199.149 8.90743 199.338 9.06321C199.527 9.21899 199.832 9.34659 200.253 9.44602L201.466 9.72443C202.169 9.88684 202.692 10.1371 203.037 10.4751C203.382 10.8132 203.554 11.2524 203.554 11.7926C203.554 12.25 203.421 12.6577 203.156 13.0156C202.894 13.3703 202.528 13.6487 202.058 13.8509C201.59 14.053 201.048 14.1541 200.432 14.1541C199.577 14.1541 198.879 13.9718 198.339 13.6072C197.799 13.2393 197.467 12.7173 197.345 12.0412L198.781 11.8224C198.871 12.197 199.055 12.4804 199.333 12.6726C199.612 12.8615 199.974 12.956 200.422 12.956C200.909 12.956 201.299 12.8549 201.59 12.6527C201.882 12.4472 202.028 12.197 202.028 11.902C202.028 11.6634 201.938 11.4628 201.759 11.3004C201.584 11.138 201.313 11.0154 200.949 10.9325L199.656 10.6491C198.944 10.4867 198.417 10.2282 198.075 9.87358C197.737 9.51894 197.568 9.06984 197.568 8.52628C197.568 8.07552 197.694 7.68111 197.946 7.34304C198.198 7.00497 198.546 6.74148 198.99 6.55256C199.434 6.36032 199.943 6.2642 200.516 6.2642C201.342 6.2642 201.991 6.44318 202.465 6.80114C202.939 7.15578 203.252 7.63139 203.405 8.22798ZM204.628 14V6.36364H206.115V14H204.628ZM205.379 5.18537C205.121 5.18537 204.899 5.09919 204.713 4.92685C204.531 4.75118 204.44 4.54238 204.44 4.30043C204.44 4.05516 204.531 3.84635 204.713 3.67401C204.899 3.49834 205.121 3.41051 205.379 3.41051C205.638 3.41051 205.858 3.49834 206.04 3.67401C206.226 3.84635 206.319 4.05516 206.319 4.30043C206.319 4.54238 206.226 4.75118 206.04 4.92685C205.858 5.09919 205.638 5.18537 205.379 5.18537ZM210.771 14.1541C210.055 14.1541 209.431 13.9901 208.897 13.6619C208.363 13.3338 207.949 12.8748 207.654 12.2848C207.359 11.6948 207.212 11.0054 207.212 10.2166C207.212 9.42448 207.359 8.73177 207.654 8.13849C207.949 7.54522 208.363 7.08452 208.897 6.75639C209.431 6.42827 210.055 6.2642 210.771 6.2642C211.487 6.2642 212.112 6.42827 212.646 6.75639C213.179 7.08452 213.594 7.54522 213.889 8.13849C214.184 8.73177 214.331 9.42448 214.331 10.2166C214.331 11.0054 214.184 11.6948 213.889 12.2848C213.594 12.8748 213.179 13.3338 212.646 13.6619C212.112 13.9901 211.487 14.1541 210.771 14.1541ZM210.776 12.9062C211.24 12.9062 211.625 12.7836 211.93 12.5384C212.235 12.2931 212.46 11.9666 212.606 11.5589C212.755 11.1513 212.83 10.7022 212.83 10.2116C212.83 9.72443 212.755 9.27699 212.606 8.86932C212.46 8.45833 212.235 8.12855 211.93 7.87997C211.625 7.63139 211.24 7.5071 210.776 7.5071C210.309 7.5071 209.921 7.63139 209.613 7.87997C209.308 8.12855 209.081 8.45833 208.932 8.86932C208.786 9.27699 208.713 9.72443 208.713 10.2116C208.713 10.7022 208.786 11.1513 208.932 11.5589C209.081 11.9666 209.308 12.2931 209.613 12.5384C209.921 12.7836 210.309 12.9062 210.776 12.9062ZM216.917 9.46591V14H215.43V6.36364H216.857V7.60653H216.952C217.127 7.20218 217.402 6.87737 217.777 6.6321C218.155 6.38684 218.63 6.2642 219.204 6.2642C219.724 6.2642 220.18 6.37358 220.571 6.59233C220.962 6.80777 221.265 7.12926 221.481 7.55682C221.696 7.98437 221.804 8.51302 221.804 9.14276V14H220.317V9.32173C220.317 8.76823 220.173 8.3357 219.885 8.02415C219.596 7.70928 219.2 7.55185 218.697 7.55185C218.352 7.55185 218.045 7.62642 217.777 7.77557C217.512 7.92472 217.301 8.14347 217.146 8.43182C216.993 8.71686 216.917 9.06155 216.917 9.46591Z" fill="white"/>
<path opacity="0.34" d="M316.119 14V3.81818H322.502V5.14062H317.655V8.2429H322.169V9.56037H317.655V12.6776H322.562V14H316.119ZM325.361 9.46591V14H323.875V6.36364H325.302V7.60653H325.396C325.572 7.20218 325.847 6.87737 326.221 6.6321C326.599 6.38684 327.075 6.2642 327.648 6.2642C328.169 6.2642 328.624 6.37358 329.015 6.59233C329.407 6.80777 329.71 7.12926 329.925 7.55682C330.141 7.98437 330.248 8.51302 330.248 9.14276V14H328.762V9.32173C328.762 8.76823 328.618 8.3357 328.329 8.02415C328.041 7.70928 327.645 7.55185 327.141 7.55185C326.796 7.55185 326.49 7.62642 326.221 7.77557C325.956 7.92472 325.746 8.14347 325.59 8.43182C325.438 8.71686 325.361 9.06155 325.361 9.46591ZM335.247 6.36364V7.55682H331.075V6.36364H335.247ZM332.194 4.53409H333.681V11.7578C333.681 12.0462 333.724 12.2633 333.81 12.4091C333.896 12.5516 334.007 12.6494 334.143 12.7024C334.282 12.7521 334.433 12.777 334.595 12.777C334.715 12.777 334.819 12.7687 334.909 12.7521C334.998 12.7356 335.068 12.7223 335.117 12.7124L335.386 13.9403C335.3 13.9735 335.177 14.0066 335.018 14.0398C334.859 14.0762 334.66 14.0961 334.421 14.0994C334.03 14.1061 333.666 14.0365 333.328 13.8906C332.99 13.7448 332.716 13.5194 332.507 13.2145C332.299 12.9096 332.194 12.5268 332.194 12.0661V4.53409ZM336.331 14V6.36364H337.768V7.5767H337.847C337.987 7.16572 338.232 6.84257 338.583 6.60724C338.938 6.36861 339.339 6.24929 339.786 6.24929C339.879 6.24929 339.988 6.2526 340.114 6.25923C340.244 6.26586 340.345 6.27415 340.418 6.28409V7.70597C340.358 7.68939 340.252 7.67116 340.099 7.65128C339.947 7.62808 339.795 7.61648 339.642 7.61648C339.291 7.61648 338.978 7.69105 338.702 7.8402C338.431 7.98603 338.215 8.18987 338.056 8.4517C337.897 8.71023 337.818 9.00521 337.818 9.33665V14H336.331ZM344.162 14.1541C343.409 14.1541 342.761 13.9934 342.218 13.6719C341.678 13.3471 341.26 12.8913 340.965 12.3047C340.673 11.7147 340.528 11.0237 340.528 10.2315C340.528 9.44934 340.673 8.75994 340.965 8.16335C341.26 7.56676 341.671 7.10109 342.198 6.76633C342.728 6.43158 343.348 6.2642 344.057 6.2642C344.488 6.2642 344.906 6.33546 345.31 6.47798C345.715 6.6205 346.078 6.84422 346.399 7.14915C346.721 7.45407 346.974 7.85014 347.16 8.33736C347.345 8.82126 347.438 9.40956 347.438 10.1023V10.6293H341.368V9.51562H345.981C345.981 9.12453 345.902 8.77817 345.743 8.47656C345.584 8.17164 345.36 7.93134 345.072 7.75568C344.787 7.58002 344.452 7.49219 344.067 7.49219C343.65 7.49219 343.285 7.59493 342.974 7.80043C342.665 8.0026 342.427 8.26776 342.258 8.59588C342.092 8.92069 342.009 9.27367 342.009 9.65483V10.5249C342.009 11.0353 342.099 11.4695 342.278 11.8274C342.46 12.1854 342.713 12.4588 343.038 12.6477C343.363 12.8333 343.743 12.9261 344.177 12.9261C344.458 12.9261 344.715 12.8864 344.947 12.8068C345.179 12.724 345.38 12.6013 345.549 12.4389C345.718 12.2765 345.847 12.076 345.937 11.8374L347.344 12.0909C347.231 12.5052 347.029 12.8681 346.737 13.1797C346.449 13.4879 346.086 13.7282 345.648 13.9006C345.214 14.0696 344.719 14.1541 344.162 14.1541ZM348.527 16.8636V6.36364H349.979V7.60156H350.103C350.19 7.44247 350.314 7.25852 350.476 7.04972C350.639 6.84091 350.864 6.65862 351.152 6.50284C351.441 6.34375 351.822 6.2642 352.296 6.2642C352.912 6.2642 353.463 6.41998 353.946 6.73153C354.43 7.04309 354.81 7.49219 355.085 8.07884C355.363 8.66548 355.503 9.37145 355.503 10.1967C355.503 11.022 355.365 11.7296 355.09 12.3196C354.815 12.9062 354.437 13.3587 353.956 13.6768C353.476 13.9917 352.927 14.1491 352.311 14.1491C351.847 14.1491 351.467 14.0713 351.172 13.9155C350.881 13.7597 350.652 13.5774 350.486 13.3686C350.321 13.1598 350.193 12.9742 350.103 12.8118H350.014V16.8636H348.527ZM349.984 10.1818C349.984 10.7187 350.062 11.1894 350.218 11.5938C350.374 11.9981 350.599 12.3146 350.894 12.5433C351.189 12.7687 351.55 12.8814 351.978 12.8814C352.422 12.8814 352.793 12.7637 353.091 12.5284C353.39 12.2898 353.615 11.9666 353.767 11.5589C353.923 11.1513 354.001 10.6922 354.001 10.1818C354.001 9.67803 353.925 9.22562 353.772 8.82457C353.623 8.42353 353.398 8.10701 353.096 7.875C352.798 7.64299 352.425 7.52699 351.978 7.52699C351.547 7.52699 351.182 7.63802 350.884 7.86009C350.589 8.08215 350.365 8.39205 350.213 8.78977C350.06 9.1875 349.984 9.65151 349.984 10.1818ZM356.608 14V6.36364H358.045V7.5767H358.124C358.264 7.16572 358.509 6.84257 358.86 6.60724C359.215 6.36861 359.616 6.24929 360.063 6.24929C360.156 6.24929 360.265 6.2526 360.391 6.25923C360.521 6.26586 360.622 6.27415 360.695 6.28409V7.70597C360.635 7.68939 360.529 7.67116 360.377 7.65128C360.224 7.62808 360.072 7.61648 359.919 7.61648C359.568 7.61648 359.255 7.69105 358.979 7.8402C358.708 7.98603 358.492 8.18987 358.333 8.4517C358.174 8.71023 358.095 9.00521 358.095 9.33665V14H356.608ZM364.439 14.1541C363.686 14.1541 363.039 13.9934 362.495 13.6719C361.955 13.3471 361.537 12.8913 361.242 12.3047C360.95 11.7147 360.805 11.0237 360.805 10.2315C360.805 9.44934 360.95 8.75994 361.242 8.16335C361.537 7.56676 361.948 7.10109 362.475 6.76633C363.005 6.43158 363.625 6.2642 364.334 6.2642C364.765 6.2642 365.183 6.33546 365.587 6.47798C365.992 6.6205 366.355 6.84422 366.676 7.14915C366.998 7.45407 367.251 7.85014 367.437 8.33736C367.622 8.82126 367.715 9.40956 367.715 10.1023V10.6293H361.645V9.51562H366.258C366.258 9.12453 366.179 8.77817 366.02 8.47656C365.861 8.17164 365.637 7.93134 365.349 7.75568C365.064 7.58002 364.729 7.49219 364.344 7.49219C363.927 7.49219 363.562 7.59493 363.251 7.80043C362.942 8.0026 362.704 8.26776 362.535 8.59588C362.369 8.92069 362.286 9.27367 362.286 9.65483V10.5249C362.286 11.0353 362.376 11.4695 362.555 11.8274C362.737 12.1854 362.99 12.4588 363.315 12.6477C363.64 12.8333 364.02 12.9261 364.454 12.9261C364.735 12.9261 364.992 12.8864 365.224 12.8068C365.456 12.724 365.657 12.6013 365.826 12.4389C365.995 12.2765 366.124 12.076 366.214 11.8374L367.621 12.0909C367.508 12.5052 367.306 12.8681 367.014 13.1797C366.726 13.4879 366.363 13.7282 365.925 13.9006C365.491 14.0696 364.996 14.1541 364.439 14.1541ZM370.291 9.46591V14H368.804V6.36364H370.231V7.60653H370.326C370.501 7.20218 370.777 6.87737 371.151 6.6321C371.529 6.38684 372.004 6.2642 372.578 6.2642C373.098 6.2642 373.554 6.37358 373.945 6.59233C374.336 6.80777 374.639 7.12926 374.855 7.55682C375.07 7.98437 375.178 8.51302 375.178 9.14276V14H373.692V9.32173C373.692 8.76823 373.547 8.3357 373.259 8.02415C372.971 7.70928 372.575 7.55185 372.071 7.55185C371.726 7.55185 371.42 7.62642 371.151 7.77557C370.886 7.92472 370.675 8.14347 370.52 8.43182C370.367 8.71686 370.291 9.06155 370.291 9.46591ZM379.903 14.1541C379.15 14.1541 378.502 13.9934 377.959 13.6719C377.419 13.3471 377.001 12.8913 376.706 12.3047C376.414 11.7147 376.269 11.0237 376.269 10.2315C376.269 9.44934 376.414 8.75994 376.706 8.16335C377.001 7.56676 377.412 7.10109 377.939 6.76633C378.469 6.43158 379.089 6.2642 379.798 6.2642C380.229 6.2642 380.647 6.33546 381.051 6.47798C381.456 6.6205 381.819 6.84422 382.14 7.14915C382.462 7.45407 382.715 7.85014 382.901 8.33736C383.086 8.82126 383.179 9.40956 383.179 10.1023V10.6293H377.109V9.51562H381.722C381.722 9.12453 381.643 8.77817 381.484 8.47656C381.325 8.17164 381.101 7.93134 380.813 7.75568C380.528 7.58002 380.193 7.49219 379.808 7.49219C379.391 7.49219 379.026 7.59493 378.715 7.80043C378.406 8.0026 378.168 8.26776 377.999 8.59588C377.833 8.92069 377.75 9.27367 377.75 9.65483V10.5249C377.75 11.0353 377.84 11.4695 378.019 11.8274C378.201 12.1854 378.454 12.4588 378.779 12.6477C379.104 12.8333 379.484 12.9261 379.918 12.9261C380.199 12.9261 380.456 12.8864 380.688 12.8068C380.92 12.724 381.121 12.6013 381.29 12.4389C381.459 12.2765 381.588 12.076 381.678 11.8374L383.085 12.0909C382.972 12.5052 382.77 12.8681 382.478 13.1797C382.19 13.4879 381.827 13.7282 381.389 13.9006C380.955 14.0696 380.46 14.1541 379.903 14.1541ZM389.106 10.8331V6.36364H390.597V14H389.136V12.6776H389.056C388.88 13.0852 388.599 13.425 388.211 13.6967C387.826 13.9652 387.348 14.0994 386.774 14.0994C386.284 14.0994 385.849 13.9917 385.472 13.7763C385.097 13.5575 384.802 13.2344 384.587 12.8068C384.374 12.3793 384.268 11.8506 384.268 11.2209V6.36364H385.755V11.0419C385.755 11.5623 385.899 11.9766 386.187 12.2848C386.476 12.593 386.85 12.7472 387.311 12.7472C387.589 12.7472 387.866 12.6776 388.141 12.5384C388.42 12.3991 388.65 12.1887 388.832 11.907C389.018 11.6252 389.109 11.2673 389.106 10.8331ZM392.035 14V6.36364H393.471V7.5767H393.551C393.69 7.16572 393.935 6.84257 394.287 6.60724C394.641 6.36861 395.042 6.24929 395.49 6.24929C395.583 6.24929 395.692 6.2526 395.818 6.25923C395.947 6.26586 396.048 6.27415 396.121 6.28409V7.70597C396.062 7.68939 395.956 7.67116 395.803 7.65128C395.651 7.62808 395.498 7.61648 395.346 7.61648C394.994 7.61648 394.681 7.69105 394.406 7.8402C394.134 7.98603 393.919 8.18987 393.76 8.4517C393.601 8.71023 393.521 9.00521 393.521 9.33665V14H392.035ZM396.848 14V6.36364H398.334V14H396.848ZM397.598 5.18537C397.34 5.18537 397.118 5.09919 396.932 4.92685C396.75 4.75118 396.659 4.54238 396.659 4.30043C396.659 4.05516 396.75 3.84635 396.932 3.67401C397.118 3.49834 397.34 3.41051 397.598 3.41051C397.857 3.41051 398.077 3.49834 398.26 3.67401C398.445 3.84635 398.538 4.05516 398.538 4.30043C398.538 4.54238 398.445 4.75118 398.26 4.92685C398.077 5.09919 397.857 5.18537 397.598 5.18537ZM401.996 14.169C401.512 14.169 401.075 14.0795 400.684 13.9006C400.293 13.7183 399.983 13.4548 399.754 13.1101C399.529 12.7654 399.416 12.3428 399.416 11.8423C399.416 11.4115 399.499 11.0568 399.665 10.7784C399.83 10.5 400.054 10.2796 400.336 10.1172C400.617 9.95478 400.932 9.83215 401.28 9.74929C401.628 9.66643 401.983 9.60346 402.344 9.56037C402.802 9.50734 403.173 9.46425 403.458 9.43111C403.743 9.39465 403.95 9.33665 404.079 9.2571C404.209 9.17756 404.273 9.0483 404.273 8.86932V8.83452C404.273 8.40033 404.151 8.06392 403.905 7.82528C403.663 7.58665 403.302 7.46733 402.822 7.46733C402.321 7.46733 401.927 7.57836 401.638 7.80043C401.353 8.01918 401.156 8.26278 401.047 8.53125L399.65 8.21307C399.815 7.74905 400.057 7.37453 400.376 7.08949C400.697 6.80114 401.067 6.59233 401.484 6.46307C401.902 6.33049 402.341 6.2642 402.802 6.2642C403.107 6.2642 403.43 6.30066 403.771 6.37358C404.116 6.44318 404.437 6.57244 404.736 6.76136C405.037 6.95028 405.284 7.22041 405.476 7.57173C405.669 7.91974 405.765 8.37216 405.765 8.92898V14H404.313V12.956H404.253C404.157 13.1482 404.013 13.3371 403.821 13.5227C403.629 13.7083 403.382 13.8625 403.08 13.9851C402.778 14.1077 402.417 14.169 401.996 14.169ZM402.319 12.9759C402.73 12.9759 403.082 12.8946 403.373 12.7322C403.668 12.5698 403.892 12.3577 404.045 12.0959C404.2 11.8307 404.278 11.5473 404.278 11.2457V10.2614C404.225 10.3144 404.122 10.3641 403.97 10.4105C403.821 10.4536 403.65 10.4917 403.458 10.5249C403.266 10.5547 403.078 10.5829 402.896 10.6094C402.714 10.6326 402.561 10.6525 402.439 10.669C402.15 10.7055 401.887 10.7668 401.648 10.853C401.413 10.9392 401.224 11.0634 401.082 11.2259C400.942 11.3849 400.873 11.5971 400.873 11.8622C400.873 12.2301 401.009 12.5085 401.28 12.6974C401.552 12.883 401.899 12.9759 402.319 12.9759ZM408.671 3.81818V14H407.185V3.81818H408.671Z" fill="white"/>
<path opacity="0.34" d="M3.11222 176L0.288352 165.818H1.90412L3.88778 173.703H3.98224L6.04545 165.818H7.64631L9.70952 173.708H9.80398L11.7827 165.818H13.4034L10.5746 176H9.02841L6.88565 168.374H6.80611L4.66335 176H3.11222ZM16.5895 176.154C15.8736 176.154 15.2488 175.99 14.7152 175.662C14.1816 175.334 13.7673 174.875 13.4723 174.285C13.1773 173.695 13.0298 173.005 13.0298 172.217C13.0298 171.424 13.1773 170.732 13.4723 170.138C13.7673 169.545 14.1816 169.085 14.7152 168.756C15.2488 168.428 15.8736 168.264 16.5895 168.264C17.3054 168.264 17.9302 168.428 18.4638 168.756C18.9974 169.085 19.4117 169.545 19.7067 170.138C20.0017 170.732 20.1492 171.424 20.1492 172.217C20.1492 173.005 20.0017 173.695 19.7067 174.285C19.4117 174.875 18.9974 175.334 18.4638 175.662C17.9302 175.99 17.3054 176.154 16.5895 176.154ZM16.5945 174.906C17.0585 174.906 17.443 174.784 17.7479 174.538C18.0528 174.293 18.2782 173.967 18.424 173.559C18.5732 173.151 18.6477 172.702 18.6477 172.212C18.6477 171.724 18.5732 171.277 18.424 170.869C18.2782 170.458 18.0528 170.129 17.7479 169.88C17.443 169.631 17.0585 169.507 16.5945 169.507C16.1271 169.507 15.7394 169.631 15.4311 169.88C15.1262 170.129 14.8992 170.458 14.75 170.869C14.6042 171.277 14.5313 171.724 14.5313 172.212C14.5313 172.702 14.6042 173.151 14.75 173.559C14.8992 173.967 15.1262 174.293 15.4311 174.538C15.7394 174.784 16.1271 174.906 16.5945 174.906ZM21.2484 176V168.364H22.6852V169.577H22.7648C22.904 169.166 23.1492 168.843 23.5006 168.607C23.8552 168.369 24.2562 168.249 24.7037 168.249C24.7965 168.249 24.9059 168.253 25.0318 168.259C25.1611 168.266 25.2622 168.274 25.3351 168.284V169.706C25.2754 169.689 25.1694 169.671 25.0169 169.651C24.8644 169.628 24.712 169.616 24.5595 169.616C24.2082 169.616 23.895 169.691 23.6199 169.84C23.3481 169.986 23.1327 170.19 22.9736 170.452C22.8145 170.71 22.7349 171.005 22.7349 171.337V176H21.2484ZM27.4287 173.41L27.4187 171.595H27.6772L30.7199 168.364H32.4997L29.0295 172.043H28.7959L27.4287 173.41ZM26.0615 176V165.818H27.548V176H26.0615ZM30.8839 176L28.1495 172.371L29.1737 171.332L32.7085 176H30.8839ZM36.5588 176V165.818H38.0951V174.678H42.7087V176H36.5588ZM43.7819 176V168.364H45.2684V176H43.7819ZM44.5326 167.185C44.2741 167.185 44.052 167.099 43.8664 166.927C43.6841 166.751 43.5929 166.542 43.5929 166.3C43.5929 166.055 43.6841 165.846 43.8664 165.674C44.052 165.498 44.2741 165.411 44.5326 165.411C44.7911 165.411 45.0115 165.498 45.1938 165.674C45.3794 165.846 45.4722 166.055 45.4722 166.3C45.4722 166.542 45.3794 166.751 45.1938 166.927C45.0115 167.099 44.7911 167.185 44.5326 167.185ZM50.3424 168.364V169.557H46.0271V168.364H50.3424ZM47.2103 176V167.479C47.2103 167.001 47.3147 166.605 47.5235 166.29C47.7323 165.972 48.0091 165.735 48.3538 165.58C48.6985 165.42 49.073 165.341 49.4774 165.341C49.7757 165.341 50.0309 165.366 50.243 165.415C50.4551 165.462 50.6126 165.505 50.7153 165.545L50.3673 166.748C50.2977 166.728 50.2082 166.705 50.0988 166.678C49.9894 166.648 49.8569 166.634 49.7011 166.634C49.3398 166.634 49.0813 166.723 48.9255 166.902C48.7731 167.081 48.6968 167.339 48.6968 167.678V176H47.2103ZM54.3066 176.154C53.5542 176.154 52.9062 175.993 52.3627 175.672C51.8224 175.347 51.4048 174.891 51.1098 174.305C50.8182 173.715 50.6723 173.024 50.6723 172.232C50.6723 171.449 50.8182 170.76 51.1098 170.163C51.4048 169.567 51.8158 169.101 52.3428 168.766C52.8731 168.432 53.4929 168.264 54.2022 168.264C54.633 168.264 55.0507 168.335 55.455 168.478C55.8594 168.621 56.2223 168.844 56.5438 169.149C56.8653 169.454 57.1188 169.85 57.3044 170.337C57.4901 170.821 57.5829 171.41 57.5829 172.102V172.629H51.5125V171.516H56.1262C56.1262 171.125 56.0466 170.778 55.8875 170.477C55.7285 170.172 55.5047 169.931 55.2164 169.756C54.9313 169.58 54.5966 169.492 54.2121 169.492C53.7945 169.492 53.4299 169.595 53.1184 169.8C52.8101 170.003 52.5715 170.268 52.4025 170.596C52.2367 170.921 52.1539 171.274 52.1539 171.655V172.525C52.1539 173.035 52.2434 173.469 52.4223 173.827C52.6046 174.185 52.8582 174.459 53.183 174.648C53.5078 174.833 53.8873 174.926 54.3215 174.926C54.6032 174.926 54.8601 174.886 55.0921 174.807C55.3241 174.724 55.5246 174.601 55.6937 174.439C55.8627 174.277 55.9919 174.076 56.0814 173.837L57.4884 174.091C57.3757 174.505 57.1735 174.868 56.8819 175.18C56.5935 175.488 56.2306 175.728 55.7931 175.901C55.3589 176.07 54.8634 176.154 54.3066 176.154ZM61.9366 176V165.818H65.6653C66.3878 165.818 66.9861 165.937 67.46 166.176C67.934 166.411 68.2886 166.731 68.5239 167.136C68.7593 167.537 68.8769 167.989 68.8769 168.493C68.8769 168.917 68.799 169.275 68.6433 169.567C68.4875 169.855 68.2787 170.087 68.0168 170.263C67.7583 170.435 67.4733 170.561 67.1617 170.641V170.74C67.4998 170.757 67.8296 170.866 68.1511 171.068C68.4759 171.267 68.7443 171.55 68.9565 171.918C69.1686 172.286 69.2746 172.734 69.2746 173.261C69.2746 173.781 69.152 174.248 68.9067 174.663C68.6648 175.074 68.2903 175.4 67.7832 175.642C67.2761 175.881 66.6281 176 65.8393 176H61.9366ZM63.4728 174.683H65.6901C66.4259 174.683 66.9529 174.54 67.2711 174.255C67.5893 173.97 67.7484 173.614 67.7484 173.186C67.7484 172.865 67.6672 172.57 67.5048 172.301C67.3424 172.033 67.1103 171.819 66.8087 171.66C66.5104 171.501 66.1558 171.421 65.7448 171.421H63.4728V174.683ZM63.4728 170.223H65.531C65.8757 170.223 66.1856 170.157 66.4607 170.024C66.7391 169.892 66.9595 169.706 67.1219 169.467C67.2877 169.225 67.3705 168.94 67.3705 168.612C67.3705 168.191 67.223 167.838 66.9281 167.553C66.6331 167.268 66.1807 167.126 65.5708 167.126H63.4728V170.223ZM72.6397 176.169C72.1558 176.169 71.7183 176.08 71.3272 175.901C70.9361 175.718 70.6262 175.455 70.3975 175.11C70.1721 174.765 70.0595 174.343 70.0595 173.842C70.0595 173.411 70.1423 173.057 70.308 172.778C70.4738 172.5 70.6975 172.28 70.9792 172.117C71.2609 171.955 71.5758 171.832 71.9238 171.749C72.2718 171.666 72.6265 171.603 72.9877 171.56C73.4451 171.507 73.8163 171.464 74.1014 171.431C74.3864 171.395 74.5935 171.337 74.7228 171.257C74.8521 171.178 74.9167 171.048 74.9167 170.869V170.835C74.9167 170.4 74.7941 170.064 74.5488 169.825C74.3069 169.587 73.9456 169.467 73.465 169.467C72.9645 169.467 72.5701 169.578 72.2818 169.8C71.9967 170.019 71.7995 170.263 71.6901 170.531L70.2931 170.213C70.4588 169.749 70.7008 169.375 71.019 169.089C71.3405 168.801 71.71 168.592 72.1276 168.463C72.5453 168.33 72.9844 168.264 73.4451 168.264C73.75 168.264 74.0732 168.301 74.4146 168.374C74.7593 168.443 75.0808 168.572 75.3791 168.761C75.6807 168.95 75.9276 169.22 76.1198 169.572C76.3121 169.92 76.4082 170.372 76.4082 170.929V176H74.9565V174.956H74.8968C74.8007 175.148 74.6565 175.337 74.4643 175.523C74.2721 175.708 74.0251 175.862 73.7235 175.985C73.4219 176.108 73.0606 176.169 72.6397 176.169ZM72.9629 174.976C73.3739 174.976 73.7252 174.895 74.0168 174.732C74.3118 174.57 74.5355 174.358 74.688 174.096C74.8438 173.831 74.9217 173.547 74.9217 173.246V172.261C74.8686 172.314 74.7659 172.364 74.6134 172.411C74.4643 172.454 74.2936 172.492 74.1014 172.525C73.9091 172.555 73.7219 172.583 73.5396 172.609C73.3573 172.633 73.2048 172.652 73.0822 172.669C72.7938 172.705 72.5303 172.767 72.2917 172.853C72.0564 172.939 71.8675 173.063 71.7249 173.226C71.5857 173.385 71.5161 173.597 71.5161 173.862C71.5161 174.23 71.652 174.509 71.9238 174.697C72.1956 174.883 72.5419 174.976 72.9629 174.976ZM79.3146 165.818V176H77.8281V165.818H79.3146ZM82.9767 176.169C82.4928 176.169 82.0553 176.08 81.6642 175.901C81.2731 175.718 80.9633 175.455 80.7346 175.11C80.5092 174.765 80.3965 174.343 80.3965 173.842C80.3965 173.411 80.4794 173.057 80.6451 172.778C80.8108 172.5 81.0345 172.28 81.3162 172.117C81.598 171.955 81.9128 171.832 82.2608 171.749C82.6089 171.666 82.9635 171.603 83.3248 171.56C83.7821 171.507 84.1534 171.464 84.4384 171.431C84.7234 171.395 84.9306 171.337 85.0598 171.257C85.1891 171.178 85.2537 171.048 85.2537 170.869V170.835C85.2537 170.4 85.1311 170.064 84.8858 169.825C84.6439 169.587 84.2826 169.467 83.802 169.467C83.3016 169.467 82.9071 169.578 82.6188 169.8C82.3338 170.019 82.1365 170.263 82.0272 170.531L80.6302 170.213C80.7959 169.749 81.0378 169.375 81.356 169.089C81.6775 168.801 82.0471 168.592 82.4647 168.463C82.8823 168.33 83.3214 168.264 83.7821 168.264C84.0871 168.264 84.4102 168.301 84.7516 168.374C85.0963 168.443 85.4178 168.572 85.7161 168.761C86.0177 168.95 86.2646 169.22 86.4569 169.572C86.6491 169.92 86.7452 170.372 86.7452 170.929V176H85.2935V174.956H85.2339C85.1377 175.148 84.9936 175.337 84.8013 175.523C84.6091 175.708 84.3622 175.862 84.0606 175.985C83.7589 176.108 83.3977 176.169 82.9767 176.169ZM83.2999 174.976C83.7109 174.976 84.0622 174.895 84.3539 174.732C84.6489 174.57 84.8726 174.358 85.025 174.096C85.1808 173.831 85.2587 173.547 85.2587 173.246V172.261C85.2057 172.314 85.1029 172.364 84.9505 172.411C84.8013 172.454 84.6306 172.492 84.4384 172.525C84.2462 172.555 84.0589 172.583 83.8766 172.609C83.6943 172.633 83.5419 172.652 83.4192 172.669C83.1309 172.705 82.8674 172.767 82.6287 172.853C82.3934 172.939 82.2045 173.063 82.062 173.226C81.9228 173.385 81.8532 173.597 81.8532 173.862C81.8532 174.23 81.9891 174.509 82.2608 174.697C82.5326 174.883 82.879 174.976 83.2999 174.976ZM89.6517 171.466V176H88.1652V168.364H89.592V169.607H89.6865C89.8621 169.202 90.1372 168.877 90.5117 168.632C90.8896 168.387 91.3652 168.264 91.9386 168.264C92.459 168.264 92.9147 168.374 93.3058 168.592C93.6969 168.808 94.0001 169.129 94.2156 169.557C94.431 169.984 94.5387 170.513 94.5387 171.143V176H93.0522V171.322C93.0522 170.768 92.9081 170.336 92.6197 170.024C92.3313 169.709 91.9353 169.552 91.4315 169.552C91.0868 169.552 90.7802 169.626 90.5117 169.776C90.2466 169.925 90.0361 170.143 89.8804 170.432C89.7279 170.717 89.6517 171.062 89.6517 171.466ZM99.189 176.154C98.4498 176.154 97.8135 175.987 97.2799 175.652C96.7496 175.314 96.3419 174.848 96.0569 174.255C95.7718 173.662 95.6293 172.982 95.6293 172.217C95.6293 171.441 95.7751 170.757 96.0668 170.163C96.3585 169.567 96.7694 169.101 97.2997 168.766C97.8301 168.432 98.4548 168.264 99.174 168.264C99.7541 168.264 100.271 168.372 100.725 168.587C101.179 168.799 101.545 169.098 101.824 169.482C102.106 169.867 102.273 170.316 102.326 170.83H100.879C100.8 170.472 100.617 170.163 100.332 169.905C100.051 169.646 99.6729 169.517 99.1989 169.517C98.7846 169.517 98.4217 169.626 98.1101 169.845C97.8019 170.061 97.5616 170.369 97.3892 170.77C97.2169 171.168 97.1307 171.638 97.1307 172.182C97.1307 172.739 97.2152 173.219 97.3843 173.624C97.5533 174.028 97.7919 174.341 98.1002 174.563C98.4117 174.785 98.778 174.896 99.1989 174.896C99.4806 174.896 99.7358 174.845 99.9645 174.742C100.197 174.636 100.39 174.485 100.546 174.29C100.705 174.094 100.816 173.859 100.879 173.584H102.326C102.273 174.078 102.112 174.518 101.844 174.906C101.575 175.294 101.216 175.599 100.765 175.821C100.318 176.043 99.7922 176.154 99.189 176.154ZM106.647 176.154C105.895 176.154 105.247 175.993 104.703 175.672C104.163 175.347 103.745 174.891 103.45 174.305C103.158 173.715 103.013 173.024 103.013 172.232C103.013 171.449 103.158 170.76 103.45 170.163C103.745 169.567 104.156 169.101 104.683 168.766C105.213 168.432 105.833 168.264 106.542 168.264C106.973 168.264 107.391 168.335 107.795 168.478C108.2 168.621 108.563 168.844 108.884 169.149C109.206 169.454 109.459 169.85 109.645 170.337C109.83 170.821 109.923 171.41 109.923 172.102V172.629H103.853V171.516H108.466C108.466 171.125 108.387 170.778 108.228 170.477C108.069 170.172 107.845 169.931 107.557 169.756C107.272 169.58 106.937 169.492 106.552 169.492C106.135 169.492 105.77 169.595 105.459 169.8C105.15 170.003 104.912 170.268 104.743 170.596C104.577 170.921 104.494 171.274 104.494 171.655V172.525C104.494 173.035 104.584 173.469 104.763 173.827C104.945 174.185 105.198 174.459 105.523 174.648C105.848 174.833 106.228 174.926 106.662 174.926C106.944 174.926 107.2 174.886 107.432 174.807C107.664 174.724 107.865 174.601 108.034 174.439C108.203 174.277 108.332 174.076 108.422 173.837L109.829 174.091C109.716 174.505 109.514 174.868 109.222 175.18C108.934 175.488 108.571 175.728 108.133 175.901C107.699 176.07 107.204 176.154 106.647 176.154Z" fill="white"/>
<g filter="url(#filter0_b_4736_488)">
<path d="M168.32 178.178L221.364 65.3662L340.9 84.0437L417.852 178.178L314.005 232.717L208.664 308.921L168.32 178.178Z" fill="#FCEB00" fill-opacity="0.15"/>
<path d="M168.32 178.178L221.364 65.3662L340.9 84.0437L417.852 178.178L314.005 232.717L208.664 308.921L168.32 178.178Z" stroke="#FCEB00" stroke-opacity="0.6" stroke-width="1.4942"/>
</g>
<circle cx="220.617" cy="65.3664" r="5.2297" fill="#676000" stroke="#FCEB00" stroke-width="1.4942"/>
<circle cx="340.153" cy="83.2971" r="5.2297" fill="#676000" stroke="#FCEB00" stroke-width="1.4942"/>
<circle cx="314.75" cy="232.717" r="5.2297" fill="#676000" stroke="#FCEB00" stroke-width="1.4942"/>
<circle cx="168.321" cy="178.926" r="5.2297" fill="#676000" stroke="#FCEB00" stroke-width="1.4942"/>
<defs>
<filter id="filter0_b_4736_488" x="159.52" y="56.542" width="267.488" height="261.595" filterUnits="userSpaceOnUse" color-interpolation-filters="sRGB">
<feFlood flood-opacity="0" result="BackgroundImageFix"/>
<feGaussianBlur in="BackgroundImageFix" stdDeviation="4"/>
<feComposite in2="SourceAlpha" operator="in" result="effect1_backgroundBlur_4736_488"/>
<feBlend mode="normal" in="SourceGraphic" in2="effect1_backgroundBlur_4736_488" result="shape"/>
</filter>
</defs>
</svg>
