<svg width="63" height="63" viewBox="0 0 63 63" fill="none" xmlns="http://www.w3.org/2000/svg">
<rect x="1.24053" y="0.882129" width="60.3503" height="60.3503" rx="30.1751" fill="#FCEB00"/>
<rect x="1.24053" y="0.882129" width="60.3503" height="60.3503" rx="30.1751" stroke="black" stroke-width="1.76426"/>
<path d="M13.2538 35.7128V27.7602H14.8361V35.7128H13.2538ZM10.0716 32.5247V30.9483H18.0242V32.5247H10.0716ZM24.3804 25.6898V37.7362H22.557V27.5132H22.4864L19.6042 29.3954V27.6544L22.6099 25.6898H24.3804ZM30.7044 37.9009C29.9671 37.9009 29.3044 37.7597 28.7162 37.4774C28.1319 37.1911 27.6653 36.799 27.3163 36.301C26.9673 35.803 26.781 35.2344 26.7575 34.5952H28.5221C28.5653 35.1128 28.7947 35.5383 29.2103 35.8716C29.626 36.2049 30.124 36.3716 30.7044 36.3716C31.1671 36.3716 31.5769 36.2657 31.9337 36.0539C32.2945 35.8383 32.5768 35.5422 32.7807 35.1657C32.9886 34.7893 33.0925 34.3599 33.0925 33.8776C33.0925 33.3874 32.9866 32.9502 32.7748 32.5659C32.5631 32.1816 32.2709 31.8796 31.8984 31.66C31.5298 31.4404 31.1063 31.3287 30.6279 31.3248C30.2632 31.3248 29.8966 31.3875 29.5279 31.513C29.1593 31.6385 28.8613 31.8032 28.6339 32.0071L26.9693 31.76L27.6457 25.6898H34.2689V27.2485H29.1574L28.775 30.6189H28.8456C29.0809 30.3915 29.3927 30.2013 29.7809 30.0484C30.173 29.8954 30.5926 29.819 31.0396 29.819C31.7729 29.819 32.4258 29.9935 32.9984 30.3425C33.5748 30.6915 34.0277 31.1679 34.3571 31.7718C34.6904 32.3718 34.8551 33.0619 34.8512 33.8423C34.8551 34.6226 34.6787 35.3187 34.3218 35.9304C33.9689 36.5421 33.4787 37.0245 32.8513 37.3774C32.2278 37.7264 31.5122 37.9009 30.7044 37.9009ZM40.2825 37.9362C39.3532 37.9323 38.5591 37.6872 37.9003 37.2009C37.2415 36.7147 36.7376 36.0069 36.3886 35.0775C36.0396 34.1482 35.8651 33.0286 35.8651 31.7189C35.8651 30.413 36.0396 29.2974 36.3886 28.372C36.7415 27.4465 37.2474 26.7407 37.9062 26.2544C38.5689 25.7682 39.361 25.5251 40.2825 25.5251C41.204 25.5251 41.9942 25.7701 42.653 26.2603C43.3118 26.7466 43.8157 27.4524 44.1647 28.3779C44.5176 29.2994 44.6941 30.413 44.6941 31.7189C44.6941 33.0325 44.5196 34.154 44.1706 35.0834C43.8216 36.0088 43.3177 36.7166 42.6589 37.2068C42.0001 37.6931 41.208 37.9362 40.2825 37.9362ZM40.2825 36.3657C41.0982 36.3657 41.7354 35.9677 42.1942 35.1716C42.6569 34.3756 42.8883 33.2247 42.8883 31.7189C42.8883 30.7189 42.7824 29.8739 42.5706 29.1837C42.3628 28.4896 42.0628 27.9641 41.6707 27.6073C41.2825 27.2465 40.8198 27.0662 40.2825 27.0662C39.4708 27.0662 38.8336 27.4661 38.3709 28.2661C37.9081 29.0661 37.6748 30.217 37.6709 31.7189C37.6709 32.7227 37.7748 33.5717 37.9826 34.2658C38.1944 34.956 38.4944 35.4795 38.8826 35.8363C39.2708 36.1892 39.7375 36.3657 40.2825 36.3657ZM50.0636 37.9362C49.1343 37.9323 48.3402 37.6872 47.6814 37.2009C47.0226 36.7147 46.5187 36.0069 46.1697 35.0775C45.8207 34.1482 45.6462 33.0286 45.6462 31.7189C45.6462 30.413 45.8207 29.2974 46.1697 28.372C46.5226 27.4465 47.0285 26.7407 47.6873 26.2544C48.35 25.7682 49.1421 25.5251 50.0636 25.5251C50.9851 25.5251 51.7753 25.7701 52.4341 26.2603C53.0929 26.7466 53.5968 27.4524 53.9458 28.3779C54.2987 29.2994 54.4752 30.413 54.4752 31.7189C54.4752 33.0325 54.3007 34.154 53.9517 35.0834C53.6027 36.0088 53.0988 36.7166 52.44 37.2068C51.7812 37.6931 50.9891 37.9362 50.0636 37.9362ZM50.0636 36.3657C50.8793 36.3657 51.5165 35.9677 51.9753 35.1716C52.438 34.3756 52.6694 33.2247 52.6694 31.7189C52.6694 30.7189 52.5635 29.8739 52.3517 29.1837C52.1439 28.4896 51.8439 27.9641 51.4518 27.6073C51.0636 27.2465 50.6009 27.0662 50.0636 27.0662C49.2519 27.0662 48.6147 27.4661 48.152 28.2661C47.6892 29.0661 47.4559 30.217 47.452 31.7189C47.452 32.7227 47.5559 33.5717 47.7637 34.2658C47.9755 34.956 48.2755 35.4795 48.6637 35.8363C49.0519 36.1892 49.5186 36.3657 50.0636 36.3657Z" fill="black"/>
</svg>
