<svg width="61" height="60" viewBox="0 0 61 60" fill="none" xmlns="http://www.w3.org/2000/svg">
<rect x="1.59462" y="0.882129" width="58.2357" height="58.2357" rx="29.1179" fill="#FCEB00"/>
<rect x="1.59462" y="0.882129" width="58.2357" height="58.2357" rx="29.1179" stroke="black" stroke-width="1.76426"/>
<path d="M10.9766 34.7109V26.7584H12.5589V34.7109H10.9766ZM7.79441 31.5229V29.9465H15.7469V31.5229H7.79441ZM17.0476 36.7344V35.4168L21.1239 31.1935C21.5591 30.7347 21.9179 30.3327 22.2003 29.9877C22.4865 29.6387 22.7002 29.3073 22.8414 28.9936C22.9826 28.6799 23.0532 28.3466 23.0532 27.9936C23.0532 27.5937 22.9591 27.2486 22.7708 26.9584C22.5826 26.6643 22.3258 26.4388 22.0003 26.282C21.6748 26.1212 21.3082 26.0408 20.9003 26.0408C20.469 26.0408 20.0925 26.129 19.771 26.3055C19.4494 26.4819 19.2024 26.731 19.0298 27.0525C18.8573 27.3741 18.771 27.7505 18.771 28.1819H17.0358C17.0358 27.4486 17.2044 26.8074 17.5417 26.2584C17.8789 25.7094 18.3416 25.284 18.9298 24.982C19.5181 24.6762 20.1866 24.5232 20.9356 24.5232C21.6925 24.5232 22.3591 24.6742 22.9355 24.9761C23.5159 25.2742 23.9688 25.682 24.2943 26.1996C24.6198 26.7133 24.7825 27.2937 24.7825 27.9407C24.7825 28.3877 24.6982 28.825 24.5296 29.2524C24.3649 29.6798 24.0766 30.1563 23.6649 30.6817C23.2532 31.2033 22.6806 31.8366 21.9473 32.5816L19.5533 35.0874V35.1756H24.9766V36.7344H17.0476ZM30.4888 36.9344C29.5594 36.9304 28.7654 36.6854 28.1066 36.1991C27.4478 35.7129 26.9439 35.005 26.5949 34.0757C26.2459 33.1463 26.0714 32.0268 26.0714 30.717C26.0714 29.4112 26.2459 28.2956 26.5949 27.3701C26.9478 26.4447 27.4537 25.7388 28.1124 25.2526C28.7752 24.7663 29.5673 24.5232 30.4888 24.5232C31.4103 24.5232 32.2005 24.7683 32.8593 25.2585C33.5181 25.7447 34.022 26.4506 34.371 27.376C34.7239 28.2975 34.9003 29.4112 34.9003 30.717C34.9003 32.0307 34.7258 33.1522 34.3768 34.0816C34.0278 35.007 33.5239 35.7148 32.8651 36.205C32.2064 36.6912 31.4142 36.9344 30.4888 36.9344ZM30.4888 35.3639C31.3044 35.3639 31.9417 34.9658 32.4005 34.1698C32.8632 33.3738 33.0945 32.2228 33.0945 30.717C33.0945 29.7171 32.9887 28.872 32.7769 28.1819C32.5691 27.4878 32.2691 26.9623 31.877 26.6055C31.4887 26.2447 31.026 26.0643 30.4888 26.0643C29.6771 26.0643 29.0398 26.4643 28.5771 27.2643C28.1144 28.0642 27.8811 29.2151 27.8772 30.717C27.8772 31.7209 27.9811 32.5699 28.1889 33.264C28.4007 33.9541 28.7007 34.4776 29.0889 34.8345C29.4771 35.1874 29.9437 35.3639 30.4888 35.3639ZM40.2699 36.9344C39.3405 36.9304 38.5465 36.6854 37.8877 36.1991C37.2289 35.7129 36.725 35.005 36.376 34.0757C36.027 33.1463 35.8525 32.0268 35.8525 30.717C35.8525 29.4112 36.027 28.2956 36.376 27.3701C36.7289 26.4447 37.2348 25.7388 37.8935 25.2526C38.5563 24.7663 39.3484 24.5232 40.2699 24.5232C41.1914 24.5232 41.9816 24.7683 42.6404 25.2585C43.2992 25.7447 43.8031 26.4506 44.1521 27.376C44.505 28.2975 44.6814 29.4112 44.6814 30.717C44.6814 32.0307 44.5069 33.1522 44.1579 34.0816C43.8089 35.007 43.305 35.7148 42.6462 36.205C41.9875 36.6912 41.1953 36.9344 40.2699 36.9344ZM40.2699 35.3639C41.0855 35.3639 41.7228 34.9658 42.1816 34.1698C42.6443 33.3738 42.8756 32.2228 42.8756 30.717C42.8756 29.7171 42.7698 28.872 42.558 28.1819C42.3502 27.4878 42.0502 26.9623 41.6581 26.6055C41.2698 26.2447 40.8071 26.0643 40.2699 26.0643C39.4582 26.0643 38.8209 26.4643 38.3582 27.2643C37.8955 28.0642 37.6622 29.2151 37.6583 30.717C37.6583 31.7209 37.7622 32.5699 37.97 33.264C38.1818 33.9541 38.4818 34.4776 38.87 34.8345C39.2582 35.1874 39.7248 35.3639 40.2699 35.3639ZM50.051 36.9344C49.1216 36.9304 48.3276 36.6854 47.6688 36.1991C47.01 35.7129 46.5061 35.005 46.1571 34.0757C45.8081 33.1463 45.6336 32.0268 45.6336 30.717C45.6336 29.4112 45.8081 28.2956 46.1571 27.3701C46.51 26.4447 47.0159 25.7388 47.6746 25.2526C48.3374 24.7663 49.1295 24.5232 50.051 24.5232C50.9725 24.5232 51.7627 24.7683 52.4215 25.2585C53.0803 25.7447 53.5842 26.4506 53.9332 27.376C54.2861 28.2975 54.4625 29.4112 54.4625 30.717C54.4625 32.0307 54.288 33.1522 53.939 34.0816C53.59 35.007 53.0861 35.7148 52.4273 36.205C51.7686 36.6912 50.9764 36.9344 50.051 36.9344ZM50.051 35.3639C50.8666 35.3639 51.5039 34.9658 51.9627 34.1698C52.4254 33.3738 52.6567 32.2228 52.6567 30.717C52.6567 29.7171 52.5509 28.872 52.3391 28.1819C52.1313 27.4878 51.8313 26.9623 51.4392 26.6055C51.0509 26.2447 50.5882 26.0643 50.051 26.0643C49.2393 26.0643 48.602 26.4643 48.1393 27.2643C47.6766 28.0642 47.4433 29.2151 47.4394 30.717C47.4394 31.7209 47.5433 32.5699 47.7511 33.264C47.9629 33.9541 48.2628 34.4776 48.6511 34.8345C49.0393 35.1874 49.5059 35.3639 50.051 35.3639Z" fill="black"/>
</svg>
