<svg width="34" height="34" viewBox="0 0 34 34" fill="none" xmlns="http://www.w3.org/2000/svg">
<path d="M17.0026 0.333008C26.2076 0.333008 33.6693 7.79467 33.6693 16.9997C33.6693 26.2047 26.2076 33.6663 17.0026 33.6663C14.0572 33.6714 11.1636 32.8919 8.6193 31.408L0.34263 33.6663L2.59596 25.3863C1.11089 22.8412 0.330801 19.9464 0.335963 16.9997C0.335963 7.79467 7.79763 0.333008 17.0026 0.333008ZM11.3226 9.16634L10.9893 9.17967C10.7738 9.19452 10.5632 9.25113 10.3693 9.34634C10.1886 9.44886 10.0236 9.57684 9.8793 9.72634C9.6793 9.91467 9.56596 10.078 9.4443 10.2363C8.82783 11.0378 8.49592 12.0219 8.50096 13.033C8.5043 13.8497 8.71763 14.6447 9.05096 15.388C9.73263 16.8913 10.8543 18.483 12.3343 19.958C12.691 20.313 13.041 20.6697 13.4176 21.0013C15.2567 22.6203 17.4481 23.788 19.8176 24.4113L20.7643 24.5563C21.0726 24.573 21.381 24.5497 21.691 24.5347C22.1763 24.5091 22.6501 24.3777 23.0793 24.1497C23.2974 24.0369 23.5104 23.9146 23.7176 23.783C23.7176 23.783 23.7882 23.7352 23.926 23.633C24.151 23.4663 24.2893 23.348 24.476 23.153C24.616 23.0086 24.7326 22.8408 24.826 22.6497C24.956 22.378 25.086 21.8597 25.1393 21.428C25.1793 21.098 25.1676 20.918 25.1626 20.8063C25.156 20.628 25.0076 20.443 24.846 20.3647L23.876 19.9297C23.876 19.9297 22.426 19.298 21.5393 18.8947C21.4465 18.8543 21.3471 18.8311 21.246 18.8263C21.1319 18.8144 21.0166 18.8271 20.9079 18.8637C20.7992 18.9002 20.6997 18.9596 20.616 19.038C20.6076 19.0347 20.496 19.1297 19.291 20.5897C19.2218 20.6826 19.1265 20.7528 19.0173 20.7914C18.9081 20.83 18.7898 20.8352 18.6776 20.8063C18.569 20.7774 18.4626 20.7406 18.3593 20.6963C18.1526 20.6097 18.081 20.5763 17.9393 20.5163C16.9824 20.0995 16.0967 19.5355 15.3143 18.8447C15.1043 18.6613 14.9093 18.4613 14.7093 18.268C14.0536 17.64 13.4822 16.9297 13.0093 16.1547L12.911 15.9963C12.8414 15.8893 12.7844 15.7747 12.741 15.6547C12.6776 15.4097 12.8426 15.213 12.8426 15.213C12.8426 15.213 13.2476 14.7697 13.436 14.5297C13.6193 14.2963 13.7743 14.0697 13.8743 13.908C14.071 13.5913 14.1326 13.2663 14.0293 13.0147C13.5626 11.8747 13.0804 10.7408 12.5826 9.61301C12.4843 9.38967 12.1926 9.22967 11.9276 9.19801C11.8376 9.1869 11.7476 9.17801 11.6576 9.17134C11.4338 9.15851 11.2094 9.16073 10.986 9.17801L11.3226 9.16634Z" fill="white"/>
</svg>
