<svg width="80" height="80" viewBox="0 0 80 80" fill="none" xmlns="http://www.w3.org/2000/svg">
<circle cx="40" cy="40" r="40" fill="#FCEB00"/>
<g clip-path="url(#clip0_28_150)">
<path d="M55 34C56.3261 34 57.5979 33.4732 58.5355 32.5355C59.4732 31.5979 60 30.3261 60 29C60 27.6739 59.4732 26.4021 58.5355 25.4645C57.5979 24.5268 56.3261 24 55 24C53.6739 24 52.4021 24.5268 51.4645 25.4645C50.5268 26.4021 50 27.6739 50 29C50 30.3261 50.5268 31.5979 51.4645 32.5355C52.4021 33.4732 53.6739 34 55 34ZM23.4938 56H56.1813C58.2938 56 60 54.2875 60 52.1812C60 51.4812 59.8062 50.7938 59.4437 50.1938L51.1938 36.675C50.9375 36.2563 50.4875 36 50 36C49.5125 36 49.0625 36.2562 48.8062 36.6687L45.7938 41.6063L37.925 29.0625C37.5125 28.4 36.7812 28 36 28C35.2188 28 34.4937 28.4 34.075 29.0625L20.5375 50.65C20.1875 51.2062 20 51.85 20 52.5063C20 54.4375 21.5625 56 23.4938 56Z" fill="black"/>
</g>
<defs>
<clipPath id="clip0_28_150">
<rect width="40" height="32" fill="white" transform="translate(20 24)"/>
</clipPath>
</defs>
</svg>
