<svg width="80" height="80" viewBox="0 0 80 80" fill="none" xmlns="http://www.w3.org/2000/svg">
<circle cx="40" cy="40" r="40" fill="#FCEB00"/>
<path d="M45.4375 24.9775C47.4625 28.2575 49.395 33.5525 49.8825 42.025L53.6325 46.6C54.5185 47.7087 55.0007 49.0858 55 50.505V58.75C55 59.0124 54.9175 59.2681 54.7641 59.4809C54.6107 59.6937 54.3942 59.8529 54.1453 59.9359C53.8964 60.0188 53.6277 60.0214 53.3773 59.9431C53.1269 59.8649 52.9074 59.7099 52.75 59.5L49.9375 55.75C49.5225 55.195 48.8875 54.75 48.0575 54.325C47.5225 54.055 47.0225 53.845 46.49 53.62L46 53.4125C44.25 54.4825 42.125 55 40 55C37.875 55 35.75 54.4825 34 53.4125C33.8317 53.4858 33.6667 53.5558 33.505 53.6225C32.9775 53.845 32.4775 54.055 31.9425 54.325C31.1125 54.75 30.4775 55.195 30.0625 55.75L27.25 59.5C27.0926 59.7099 26.8731 59.8649 26.6227 59.9431C26.3723 60.0214 26.1036 60.0188 25.8547 59.9359C25.6058 59.8529 25.3893 59.6937 25.2359 59.4809C25.0825 59.2681 25 59.0124 25 58.75V50.505C25 49.0855 25.4831 47.7083 26.37 46.6L26.38 46.5875L30.1225 42.025C30.615 33.7175 32.545 28.44 34.5575 25.135C35.7225 23.2175 36.9075 21.98 37.8325 21.21C38.2984 20.8198 38.8017 20.4765 39.335 20.185C39.5373 20.0678 39.7662 20.0041 40 20C40.2525 20 40.425 20.0675 40.625 20.16C40.7183 20.2017 40.8392 20.2642 40.9875 20.3475C41.2825 20.5125 41.68 20.765 42.145 21.135C43.0775 21.8775 44.27 23.0825 45.4375 24.9775ZM43.75 35C43.75 32.2375 42.07 30 40 30C37.93 30 36.25 32.2375 36.25 35C36.25 37.7625 37.93 40 40 40C42.07 40 43.75 37.7625 43.75 35Z" fill="black"/>
<path d="M40 56.25C41.25 56.25 42.4975 56.135 43.6975 55.9025L41 59.5C40.8836 59.6552 40.7326 59.7812 40.559 59.868C40.3854 59.9548 40.194 60 40 60C39.8059 60 39.6145 59.9548 39.441 59.868C39.2674 59.7812 39.1164 59.6552 39 59.5L36.3025 55.9025C37.5025 56.135 38.7525 56.25 40 56.25Z" fill="black"/>
</svg>
