<svg width="80" height="80" viewBox="0 0 80 80" fill="none" xmlns="http://www.w3.org/2000/svg">
<circle cx="40" cy="40" r="40" fill="#FCEB00"/>
<path d="M47.9161 47.2922C49.8333 46.2266 49.5848 42.1203 47.3629 38.1141C46.4098 36.3891 45.2379 34.9922 44.0661 34.0157C42.6647 35.0555 40.9673 35.6195 39.2223 35.625C37.4746 35.6212 35.7743 35.0571 34.3708 34.0157C33.1989 34.9922 32.0301 36.3907 31.0739 38.1141C28.8505 42.1188 28.6051 46.2266 30.527 47.2922C31.3833 47.7797 32.2864 47.4141 33.2176 46.5172C33.0432 47.4835 32.9559 48.4635 32.9567 49.4453C32.9567 54.036 34.738 57.7453 36.9301 57.7453C38.252 57.7453 38.9067 56.3938 39.2208 54.3266C39.5333 56.3797 40.1895 57.7453 41.502 57.7453C43.6848 57.7453 45.4801 54.0344 45.4801 49.4453C45.4801 48.4141 45.3833 47.4297 45.2176 46.5188C46.1551 47.4172 47.0551 47.7891 47.9145 47.2953L47.9161 47.2922ZM39.2192 34.0625C40.1057 34.0758 40.986 33.9126 41.8088 33.5824C42.6317 33.2522 43.3806 32.7617 44.0121 32.1394C44.6436 31.517 45.145 30.7753 45.4871 29.9574C45.8293 29.1394 46.0053 28.2616 46.005 27.375C46.0047 26.4884 45.828 25.6107 45.4853 24.793C45.1426 23.9753 44.6407 23.2339 44.0088 22.612C43.3769 21.9901 42.6276 21.5001 41.8045 21.1705C40.9814 20.841 40.101 20.6784 39.2145 20.6922C37.4592 20.7197 35.7851 21.4364 34.5537 22.6876C33.3224 23.9388 32.6325 25.6242 32.6331 27.3797C32.6337 29.1352 33.3248 30.8201 34.557 32.0704C35.7893 33.3208 37.4639 34.0363 39.2192 34.0625ZM52.6473 38.3032C54.0751 38.2614 55.4305 37.6649 56.4257 36.6402C57.4209 35.6155 57.9775 34.2433 57.9775 32.8149C57.9775 31.3865 57.4209 30.0143 56.4257 28.9896C55.4305 27.9649 54.0751 27.3683 52.6473 27.3266C51.1913 27.3268 49.795 27.9054 48.7656 28.9351C47.7362 29.9648 47.1581 31.3612 47.1583 32.8172C47.1585 34.2732 47.7371 35.6695 48.7668 36.6989C49.7964 37.7283 51.1929 38.3065 52.6489 38.3063L52.6473 38.3032ZM59.3348 41.6313C58.5504 40.2125 57.5911 39.0657 56.6286 38.2641C55.4773 39.1172 54.0834 39.5798 52.6505 39.5844C51.4692 39.5844 50.3692 39.261 49.4067 38.725C50.1817 40.4328 50.6614 42.1625 50.7504 43.7094C50.8973 46.0782 50.1567 47.8344 48.6754 48.6547C48.3582 48.8296 48.013 48.9481 47.6551 49.0047C47.5661 49.6172 47.5051 50.2547 47.5051 50.9266C47.5051 54.6969 48.9661 57.7422 50.7676 57.7422C51.852 57.7422 52.3926 56.6328 52.6489 54.936C52.9036 56.6235 53.4426 57.7422 54.5239 57.7422C56.313 57.7422 57.7895 54.6954 57.7895 50.9297C57.7895 50.0813 57.7067 49.2735 57.5708 48.5235C58.3395 49.2625 59.0801 49.5672 59.7864 49.161C61.3598 48.286 61.1567 44.9141 59.3333 41.6297L59.3348 41.6313ZM25.7911 38.3032C26.8763 38.3025 27.9369 37.9802 28.8389 37.3768C29.7409 36.7735 30.4438 35.9162 30.8586 34.9135C31.2735 33.9107 31.3817 32.8075 31.1696 31.7432C30.9575 30.6789 30.4347 29.7014 29.6671 28.9343C28.8995 28.1672 27.9217 27.6449 26.8574 27.4334C25.793 27.2219 24.6898 27.3307 23.6873 27.7462C22.6847 28.1616 21.8279 28.8649 21.225 29.7673C20.6222 30.6696 20.3005 31.7305 20.3004 32.8157C20.3009 34.2717 20.8795 35.6681 21.9091 36.6977C22.9387 37.7273 24.335 38.3059 25.7911 38.3063V38.3032ZM29.752 48.65C27.2645 47.2672 27.0364 43.1438 29.0395 38.7219C28.0494 39.2841 26.9312 39.5817 25.7926 39.586C24.2989 39.586 22.9301 39.086 21.8083 38.2641C20.8473 39.0641 19.8895 40.211 19.102 41.6282C17.2786 44.9157 17.0786 48.2875 18.6536 49.1594C19.3567 49.5625 20.0989 49.261 20.863 48.525C20.7239 49.3186 20.6534 50.1226 20.652 50.9282C20.652 54.6969 22.1129 57.7407 23.9145 57.7407C24.9989 57.7407 25.5395 56.6313 25.7958 54.936C26.0536 56.6235 26.5926 57.7422 27.6708 57.7422C29.4629 57.7422 30.9364 54.6954 30.9364 50.9297C30.9364 50.2532 30.8739 49.6141 30.7848 49.0016C30.423 48.9452 30.074 48.8257 29.7536 48.6485L29.752 48.65Z" fill="black"/>
</svg>
