<svg width="80" height="80" viewBox="0 0 80 80" fill="none" xmlns="http://www.w3.org/2000/svg">
<circle cx="40" cy="40" r="40" fill="#FCEB00"/>
<g clip-path="url(#clip0_28_179)">
<path fill-rule="evenodd" clip-rule="evenodd" d="M33.9429 30.4771H26.1143V26.7714C26.1132 25.7333 26.5245 24.7372 27.2577 24.0024C27.991 23.2675 28.9862 22.854 30.0243 22.8529C31.0624 22.8517 32.0585 23.263 32.7934 23.9963C33.5283 24.7296 33.9417 25.7247 33.9429 26.7629V30.4771ZM43.8972 33.8229C43.4464 32.8247 42.717 31.978 41.7965 31.3844C40.8761 30.7909 39.8038 30.4759 38.7086 30.4771H36.8V23.9143C36.8 22.8762 37.2124 21.8805 37.9465 21.1465C38.6806 20.4124 39.6762 20 40.7143 20C41.7524 20 42.7481 20.4124 43.4821 21.1465C44.2162 21.8805 44.6286 22.8762 44.6286 23.9143V31.5457C44.6286 32.3971 44.3572 33.1829 43.8972 33.8229ZM38.8943 34.0571C39.3858 34.101 39.8468 34.3144 40.1981 34.6609C40.5495 35.0074 40.7694 35.4653 40.82 35.9562C40.8707 36.447 40.749 36.9402 40.4759 37.3512C40.2027 37.7621 39.7951 38.0653 39.3229 38.2086L33.3029 40.0371C32.8956 40.1633 32.547 40.431 32.3199 40.7918C32.0928 41.1526 32.0024 41.5828 32.0648 42.0045C32.1273 42.4263 32.3386 42.8117 32.6605 43.0912C32.9824 43.3708 33.3937 43.5259 33.82 43.5286C34.84 43.5286 36.14 44.0371 37.1914 44.9971C38.2257 45.94 38.84 47.1514 38.8143 48.4114C38.8092 48.6459 38.8504 48.8791 38.9355 49.0977C39.0205 49.3163 39.1478 49.516 39.3101 49.6854C39.4723 49.8548 39.6663 49.9906 39.881 50.085C40.0957 50.1794 40.3269 50.2307 40.5614 50.2357C40.7959 50.2408 41.0292 50.1996 41.2477 50.1145C41.4663 50.0295 41.666 49.9022 41.8354 49.74C42.0048 49.5777 42.1406 49.3837 42.235 49.169C42.3295 48.9543 42.3807 48.7231 42.3857 48.4886C42.4372 45.9657 41.2057 43.8229 39.6 42.3571C39.4604 42.2286 39.3165 42.1047 39.1686 41.9857L40.36 41.6257C41.3449 41.3256 42.2305 40.7649 42.923 40.003C43.6155 39.2411 44.0893 38.3062 44.2943 37.2971C44.9698 36.8741 45.5663 36.3365 46.0572 35.7086C46.7172 36.559 47.5707 37.2397 48.5468 37.6941C49.5228 38.1484 50.5931 38.3632 51.6689 38.3208C52.7446 38.2783 53.7947 37.9797 54.7318 37.4499C55.669 36.92 56.4662 36.1742 57.0572 35.2743C57.1905 35.9333 57.2572 36.6038 57.2572 37.2857V40.24C57.2572 48.2571 50.5743 50.9314 50.5743 50.9314V58.5714C50.5743 58.9503 50.4238 59.3137 50.1559 59.5816C49.888 59.8495 49.5246 60 49.1457 60H30.8429C30.464 60 30.1006 59.8495 29.8327 59.5816C29.5648 59.3137 29.4143 58.9503 29.4143 58.5714V51.6286C25.4143 50.24 22.7286 44.7086 22.7314 40.9371C22.7314 37.6771 23.4657 34.2714 27.0829 34.2714L38.8943 34.0571ZM51.4 23.0457C50.3619 23.0457 49.3663 23.4581 48.6322 24.1922C47.8981 24.9263 47.4857 25.9219 47.4857 26.96V31.5457C47.4857 32.5838 47.8981 33.5795 48.6322 34.3135C49.3663 35.0476 50.3619 35.46 51.4 35.46C52.4381 35.46 53.4338 35.0476 54.1678 34.3135C54.9019 33.5795 55.3143 32.5838 55.3143 31.5457V26.96C55.3143 25.9219 54.9019 24.9263 54.1678 24.1922C53.4338 23.4581 52.4381 23.0457 51.4 23.0457Z" fill="black"/>
</g>
<defs>
<clipPath id="clip0_28_179">
<rect width="40" height="40" fill="white" transform="translate(20 20)"/>
</clipPath>
</defs>
</svg>
