<svg width="44" height="44" viewBox="0 0 44 44" fill="none" xmlns="http://www.w3.org/2000/svg">
<path d="M18.3337 27.4993L27.8487 21.9993L18.3337 16.4993V27.4993ZM39.527 13.1443C39.7653 14.006 39.9303 15.161 40.0403 16.6277C40.1687 18.0943 40.2237 19.3593 40.2237 20.4593L40.3337 21.9993C40.3337 26.0143 40.0403 28.966 39.527 30.8543C39.0687 32.5043 38.0053 33.5677 36.3553 34.026C35.4937 34.2643 33.917 34.4293 31.497 34.5394C29.1137 34.6677 26.932 34.7227 24.9153 34.7227L22.0003 34.8327C14.3187 34.8327 9.53366 34.5393 7.64533 34.026C5.99533 33.5677 4.93199 32.5043 4.47366 30.8543C4.23533 29.9927 4.07033 28.8377 3.96033 27.371C3.83199 25.9044 3.77699 24.6393 3.77699 23.5393L3.66699 21.9993C3.66699 17.9843 3.96033 15.0327 4.47366 13.1443C4.93199 11.4943 5.99533 10.431 7.64533 9.97268C8.50699 9.73435 10.0837 9.56935 12.5037 9.45935C14.887 9.33102 17.0687 9.27602 19.0853 9.27602L22.0003 9.16602C29.682 9.16602 34.467 9.45935 36.3553 9.97268C38.0053 10.431 39.0687 11.4943 39.527 13.1443Z" fill="white"/>
</svg>
